<svg xmlns="http://www.w3.org/2000/svg" width="157" height="344" viewBox="0 0 157 344">
  <path fill="#4F4F4F" stroke="#FFF" stroke-width="3" d="M71.3,340.209961 C68.1,338.609961 65,333.609961 65,330.009961 C65,329.009961 66.3,326.409961 68,324.409961 L70.9,320.609961 L68.9,315.509961 C66.7,309.709961 63.2,304.109961 52.5,289.209961 C40.7,272.909961 38.6,268.609961 38.6,260.909961 C38.5,255.309961 39,253.409961 41.8,248.309961 C43.6,245.009961 47,239.609961 49.5,236.309961 C52,233.009961 54,229.809961 54,229.209961 C54,228.609961 52.9,227.609961 51.5,227.009961 C48.1,225.509961 48.3,222.309961 51.8,220.609961 C53.8,219.609961 54.5,218.609961 54.5,216.309961 C54.5,213.809961 53.8,213.009961 50.1,211.209961 C46.4,209.509961 45.4,208.409961 44.6,205.309961 C43.8,202.709961 42.5,200.909961 40.5,199.809961 C37.1,197.909961 36,193.809961 38.5,191.809961 C39.3,191.109961 41.5,190.209961 43.3,189.909961 C45.4,189.409961 46.6,188.509961 46.8,187.309961 C47.4,184.509961 49.9,181.909961 53.6,180.309961 C56.7,179.009961 56.8,178.809961 57.5,170.609961 C58.2,161.809961 56.7,130.809961 55,120.309961 C52.2,103.109961 44.1,83.4099609 35.2,72.3099609 C32.6,69.0099609 29.9,64.7099609 29.4,62.8099609 C28.7,60.2099609 27.1,58.4099609 23.6,56.1099609 C16.3,51.4099609 12.2,47.0099609 9,40.4099609 C5.7,33.8099609 5,26.5099609 7.5,23.2099609 C9.6,20.4099609 9.3,19.5099609 5.5,17.0099609 C2.9,15.3099609 2,14.1099609 2,11.9099609 C2,5.50996093 7.3,4.30996093 42,2.70996093 C67,1.50996093 114,2.10996093 134.3,3.90996093 C147.1,5.00996093 152.7,6.40996093 154.3,8.90996093 C155.9,11.4099609 154.3,15.5099609 151,17.5099609 C147.6,19.5099609 147.3,20.8099609 149.6,24.4099609 C152.1,28.1099609 150.8,35.8099609 146.8,42.5099609 C143,48.8099609 140,51.8099609 133.4,56.2099609 C129.9,58.4099609 128.2,60.4099609 127.3,63.0099609 C126.6,65.0099609 123.9,69.4099609 121.2,72.7099609 C115.6,79.7099609 109.2,92.1099609 105.7,102.809961 C101.4,116.009961 99.9,127.609961 99.3,153.509961 L98.7,177.709961 L103.4,180.509961 C106.5,182.409961 108.3,184.309961 109.1,186.509961 C109.8,188.709961 110.8,189.809961 112,189.809961 C114.7,189.809961 118.8,191.809961 119.4,193.509961 C120.2,195.609961 118.4,198.509961 115.3,200.009961 C113.5,200.909961 112.3,202.609961 111.6,205.209961 C110.7,208.409961 109.7,209.409961 106,211.209961 C102.2,213.009961 101.5,213.809961 101.5,216.309961 C101.5,218.609961 102.2,219.609961 104.3,220.609961 C107.7,222.309961 107.9,225.509961 104.5,227.009961 C103.1,227.609961 102,228.509961 102,228.909961 C102,229.309961 104.9,234.009961 108.5,239.209961 C116.5,251.109961 118.6,257.509961 117,265.209961 C115.8,271.109961 113.3,275.409961 99.3,294.909961 C94.4,301.909961 89.1,310.609961 87.5,314.209961 L84.7,320.909961 L87.2,323.609961 C90.7,327.309961 91.3,330.009961 89.6,334.209961 C86.8,340.909961 78.3,343.709961 71.3,340.209961 Z" transform="matrix(1 0 0 -1 0 343.81)"/>
</svg>
