<svg xmlns="http://www.w3.org/2000/svg" width="158" height="344" viewBox="0 0 158 344">
  <path fill="#E7E7E7" stroke="#000" stroke-width="4" d="M72.4,340.326504 C65.7,337.326504 63.9,329.426504 68.6,323.726504 L71.3,320.626504 L68.5,314.226504 C67,310.626504 61.4,301.626504 56,294.126504 C41.7,274.126504 39.9,270.826504 39.3,263.826504 C38.8,258.626504 39.1,257.126504 41.7,251.526504 C43.4,248.026504 47.1,242.126504 49.9,238.226504 L55,231.226504 L52,228.726504 C48.5,225.826504 48.7,223.226504 52.6,222.326504 C54.5,221.826504 55,221.026504 55,218.426504 C55,215.426504 54.5,214.826504 50.8,213.126504 C47.2,211.526504 46.3,210.526504 45.1,206.926504 C44.1,203.626504 43,202.326504 40.9,201.526504 C37.9,200.526504 36.6,198.026504 37.5,195.526504 C38.2,193.826504 42.2,191.726504 44.6,191.726504 C45.4,191.726504 46.8,190.126504 47.6,188.226504 C48.5,185.926504 50.3,184.126504 52.9,182.826504 C55,181.726504 57,180.126504 57.4,179.226504 C59.2,174.426504 57.2,131.326504 54.5,118.226504 C51,101.626504 44.5,86.6265037 35.6,75.0265037 C32.5,71.0265037 30,66.9265037 30,65.9265037 C30,63.5265037 28.3,61.5265037 23.9,58.9265037 C11.1,51.2265037 2.2,32.7265037 7.9,25.6265037 L9.8,23.2265037 L5.9,19.6265037 C1.6,15.6265037 1,12.7265037 3.9,9.82650367 C7.9,5.82650367 20.2,4.12650367 55.8,2.62650367 C91.3,1.12650367 134.5,3.12650367 148.2,6.82650367 C156,8.92650367 157.4,14.6265037 151.3,19.4265037 C147.8,22.3265037 147.7,22.4265037 149.3,24.8265037 C151.8,28.2265037 151.4,35.3265037 148.5,41.4265037 C145.8,47.3265037 138.1,56.1265037 133.7,58.3265037 C129.6,60.5265037 127,63.4265037 127,65.8265037 C127,67.0265037 124.8,70.7265037 122.1,74.1265037 C109.1,90.4265037 102.2,110.026504 100,137.226504 C98.8,151.926504 98.7,178.726504 99.8,180.326504 C100.2,180.926504 102.2,182.226504 104.2,183.126504 C106.8,184.426504 108.2,185.926504 109,188.326504 C109.9,190.926504 110.7,191.726504 112.5,191.726504 C113.8,191.726504 116.1,192.726504 117.6,194.026504 C119.9,196.026504 120.1,196.626504 119.1,198.526504 C118.5,199.626504 116.8,201.226504 115.3,201.926504 C113.5,202.826504 112.3,204.526504 111.6,207.126504 C110.7,210.326504 109.7,211.326504 106,213.126504 C102.5,214.726504 101.4,215.826504 101.2,217.926504 C100.9,220.026504 101.5,220.926504 103.9,222.226504 C107.7,224.126504 108,227.426504 104.5,228.726504 C103.1,229.226504 102,230.126504 102,230.726504 C102,231.226504 104.1,234.526504 106.6,237.926504 C114.1,248.126504 117.3,255.326504 117.3,261.826504 C117.2,269.526504 115.1,273.626504 102.5,291.226504 C96.6,299.526504 90.2,309.526504 88.3,313.526504 L84.9,320.826504 L88.1,324.426504 C90.7,327.426504 91.1,328.626504 90.6,331.526504 C90,335.726504 87.6,338.526504 83.3,340.326504 C79.3,342.026504 76.4,342.026504 72.4,340.326504 Z" transform="matrix(1 0 0 -1 0 343.727)"/>
</svg>
