<svg xmlns="http://www.w3.org/2000/svg" width="216" height="203" viewBox="0 0 216 203">
  <g fill="none" fill-rule="evenodd" stroke-width="2.684" transform="translate(1.581 1.74)">
    <path fill="#20201E" fill-rule="nonzero" stroke="#20201E" d="M158.7957,23.4442126 C158.7957,23.4442126 155.3054,4.68911265 155.3054,2.06961265 C155.3054,-0.544987352 152.6909,-0.981187352 150.0731,2.50891265 C147.4554,5.99911265 135.6807,23.0076126 135.6807,23.0076126 L158.773,23.4166126 L158.7957,23.4442126 Z"/>
    <path fill="#20201E" fill-rule="nonzero" stroke="#20201E" d="M2.3186,167.314913 C3.503,158.856613 5.119,150.794813 7.0868,143.126213 L13.4082,140.603813 L9.1868,135.559013 C11.5924,127.448113 14.3867,119.816313 17.456,112.640713 L23.4348,110.947813 L20.4808,105.892313 C23.693,99.0655126 27.1449,92.6995126 30.727,86.7716126 L36.3019,85.6517126 L34.3034,81.0477126 C38.3191,74.8509126 42.4452,69.1913126 46.5405,64.0544126 L52.441,63.4077126 L50.8649,58.8116126 C55.6517,53.1877126 60.3186,48.2948126 64.6366,44.1150126 L70.5418,43.7832126 L69.511,39.5542126 C80.04,30.0269126 87.4796,25.3905126 87.4796,25.3905126 L100.8552,29.4600126 C100.8552,29.4600126 107.2503,25.9697126 112.4857,22.4826126 C112.4857,22.4826126 115.9728,10.8522126 117.1356,4.45391265 C118.3,-1.94118735 121.7871,0.966812648 122.9499,2.71031265 C124.1159,4.45391265 136.1811,17.8310126 136.1811,17.8310126 C136.1811,17.8310126 143.3982,16.8402126 148.5364,17.8310126 C156.0943,19.2858126 159.5861,24.3736126 168.3102,32.6613126 C174.6716,38.7030126 178.4875,44.0029126 180.6671,49.6697126 C182.8469,55.3396126 180.2339,55.3396126 181.1018,60.5718126 C181.9774,65.8072126 205.5287,105.057513 208.1431,109.855313 C210.7654,114.651213 217.0805,129.327713 204.656,138.640113 C201.1689,141.260813 198.5466,142.566413 196.3698,143.439213 C196.3698,143.439213 192.8795,142.566613 191.5739,140.824613 C191.3404,140.511213 191.2206,140.320713 191.1637,140.216313 C191.1207,140.093413 191.0992,140.093413 191.1637,140.216313 C191.2974,140.557313 191.6015,141.832413 190.2635,143.439113 C188.0837,146.059813 185.2817,145.863213 183.7193,146.059813 C181.3951,146.348613 177.1798,144.311613 173.6895,139.079313 C170.1977,133.841113 168.018,132.098813 165.4018,129.045213 C162.7872,125.994313 148.3519,119.238213 142.7201,109.855313 C141.4128,107.680113 138.3606,108.549513 136.1806,110.293113 C134.0008,112.039713 121.7866,112.476013 116.5544,103.750513 C116.5544,103.750513 114.0811,126.691813 124.4058,142.567013 C141.4129,168.734313 170.1972,175.273713 178.9244,199.703113 L5.68434189e-14,199.703113 C5.68434189e-14,191.260313 0.4439,183.161613 1.2504,175.366913 L7.1953,172.223913 L2.2182,167.316013 L2.3186,167.314913 Z"/>
    <path stroke="#FFF" d="M94.4582,35.2735126 C94.4582,35.2735126 18.2819,92.2681126 18.2819,195.192413"/>
    <path stroke="#20201E"/>
    <path stroke="#FFF" d="M110.1572 74.8198126C108.7055 91.1002126 116.2666 102.729113 116.5554 103.747413 116.5554 103.747413 98.2351 94.3016126 96.49 81.7940126M116.5437 103.732413C116.5437 103.732413 104.3312 109.695813 95.3183 105.915313"/>
    <path stroke="#20201E" d="M191.578,140.164113 C191.578,140.164113 183.4347,129.690413 181.1059,124.894513"/>
    <path stroke="#FFF" d="M141.3979 43.5477126C141.3979 43.5477126 154.8087 43.6153126 159.2806 50.9599126 165.3868 60.9941126 158.4096 62.3000126 158.4096 62.3000126 158.4096 62.3000126 151.4306 64.4844126 146.6332 57.9405126 141.5255 50.9754126 145.7606 46.6004126 145.7606 46.6004126L141.419 43.5487126 141.3979 43.5477126zM206.3961 117.480813C201.597 116.175013 198.5447 116.605213 196.3679 117.920213 196.3679 117.920213 198.5447 111.374513 194.6243 105.704613 190.6949 100.034713 184.1522 99.5999126 178.4852 88.6962126"/>
    <line x1="79.042" x2="70.768" y1="49.683" y2="44.429" stroke="#FFF"/>
    <line x1="62.035" x2="53.748" y1="68.433" y2="64.501" stroke="#FFF"/>
    <line x1="46.773" x2="37.177" y1="90.173" y2="86.24" stroke="#FFF"/>
    <line x1="34.553" x2="24.53" y1="115.09" y2="111.598" stroke="#FFF"/>
    <line x1="24.964" x2="14.494" y1="144.317" y2="141.265" stroke="#FFF"/>
    <line x1="19.292" x2="8.391" y1="173.953" y2="172.663" stroke="#FFF"/>
  </g>
</svg>
