<svg xmlns="http://www.w3.org/2000/svg" width="132" height="198" viewBox="0 0 132 198">
  <path stroke="#000" stroke-linejoin="round" stroke-width="2.484" d="M89.3333,167.0307 C77.5355,143.6103 78.7276,101.8909 79.7139,85.7263 C98.3723,84.4467 111.7914,80.9134 111.7914,76.7489 C111.7914,72.6612 98.8751,69.1788 80.7575,67.8423 C92.3279,61.8789 100.2454,49.8246 100.2454,35.9126 C100.2454,16.0774 84.1739,-2.13162821e-13 64.3391,-2.13162821e-13 C44.5043,-2.13162821e-13 28.4328,16.0778 28.4328,35.9126 C28.4328,49.8243 36.3534,61.8785 47.9206,67.8423 C29.806,69.1788 16.8838,72.6611 16.8838,76.7489 C16.8838,80.9134 30.3101,84.4467 48.9645,85.7263 C49.9538,101.8931 51.1458,143.6112 39.3481,167.0307 C16.2255,171.679 0,182.5922 0,195.3024 L128.675,195.3024 C128.675,182.5922 112.4726,171.6753 89.349,167.019 L89.3333,167.0307 Z" transform="translate(1.996 1.348)"/>
</svg>
