<svg xmlns="http://www.w3.org/2000/svg" width="235" height="220" viewBox="0 0 235 220">
  <g fill="none" fill-rule="evenodd" transform="translate(.069 2.505)">
    <path fill="#20201E" fill-rule="nonzero" d="M233.8225,206.683 C231.8577,205.6107 214.161,188.2211 197.7494,188.2211 C189.2159,188.2211 182.5242,190.7957 176.6253,193.0692 C170.6405,195.3735 164.9904,197.5486 156.8118,197.5486 C147.2798,197.5486 139.367,194.6391 132.3821,192.0738 C126.7506,190.0092 121.887,188.2211 116.9096,188.2211 C111.9357,188.2211 107.0718,190.0092 101.4403,192.0738 C94.4585,194.6392 86.5439,197.5486 77.0122,197.5486 C68.8321,197.5486 63.182,195.3734 57.1987,193.0692 C51.2982,190.7956 44.6081,188.2211 36.0762,188.2211 C19.6605,188.2211 1.9631,205.6105 -9.9475983e-14,206.683 C-9.9475983e-14,206.683 7.1448,202.2127 13.7934,202.2127 C20.4436,202.2127 26.2025,206.8765 36.0772,206.8765 C41.1421,206.8765 45.2698,208.4649 50.4989,210.4772 C57.123,213.0303 65.3645,216.2009 77.0132,216.2009 C89.865,216.2009 100.2741,212.379 107.8751,209.5891 C111.3345,208.3172 115.2549,206.8762 116.911,206.8762 C118.5731,206.8762 122.4903,208.3171 125.9497,209.5891 C133.5522,212.3788 143.9598,216.2009 156.8132,216.2009 C168.4591,216.2009 176.7037,213.0303 183.3275,210.4772 C188.5535,208.4648 192.6827,206.8765 197.7508,206.8765 C207.6239,206.8765 215.1065,202.2127 220.0314,202.2127 C224.9563,202.2127 233.9057,206.6801 233.9057,206.6801 L233.8225,206.683 Z"/>
    <path fill="#FFF" fill-rule="nonzero" stroke="#20201E" stroke-width="4.152" d="M179.6154,99.9991 C179.6154,70.569 154.5036,23.9172 135.2838,17.6093 C134.6156,17.3896 133.9274,17.2053 133.2207,17.0578 C136.5725,15.815 138.9692,12.5998 138.9692,8.8147 C138.9692,3.9571 135.029,0.0217 130.1762,0.0217 C125.3218,0.0217 121.3785,3.9575 121.3785,8.8147 C121.3785,12.1898 123.2864,15.1132 126.0747,16.5909 C122.1345,16.8459 117.8776,17.8705 113.4919,19.6371 C110.6945,18.3651 107.9111,17.4542 105.1689,16.9549 C108.3763,15.6446 110.6409,12.4922 110.6409,8.8147 C110.6409,3.9571 106.7051,0.0217 101.8479,0.0217 C96.9907,0.0217 93.0549,3.9575 93.0549,8.8147 C93.0549,12.2449 95.0243,15.2129 97.8907,16.6613 C96.4021,16.8257 94.9366,17.1344 93.5035,17.6091 C74.329,23.9183 49.776,68.8432 49.776,99.9989 C49.776,124.8452 59.8426,146.2496 71.4623,161.744 C73.192,166.3373 75.8218,166.4722 76.3904,167.0407 C76.3919,167.0407 76.3935,167.0376 76.395,167.0376 C76.3842,167.1144 74.0923,182.0123 73.868,185.3765 C73.5224,190.5625 73.0001,196.6889 73.0001,196.6889 C85.6782,202.2654 99.5698,205.5036 114.6606,205.5036 C129.7549,205.5036 142.9616,201.952 155.6353,196.3787 C155.1837,192.234 154.666,188.0925 153.6291,181.8711 C153.0884,178.6174 151.2265,167.0317 151.2265,167.0317 C151.7918,166.4694 155.2113,162.1804 155.2113,162.1804 C167.544,146.6072 179.5935,125.843 179.5935,100.0137 L179.6154,99.9991 Z"/>
    <path fill="#333" fill-rule="nonzero" stroke="#333" stroke-width="1.677" d="M76.7068,167.0423 C86.9885,162.6119 98.8109,158.7285 114.1296,158.7285 C129.4438,158.7285 141.2615,162.6089 151.5429,167.0329 C152.1067,166.4707 153.4508,165.0297 156.2268,161.1431 C147.5766,151.7816 134.9875,146.6384 114.3933,146.6384 C92.4197,146.6384 80.425,152.3715 71.7763,161.7453 C73.5381,166.3071 76.1808,166.4644 76.7471,167.0307 L76.7068,167.0423 Z"/>
    <path fill="#FFF" fill-rule="nonzero" stroke="#333" stroke-linejoin="bevel" stroke-width="3.189" d="M155.2962,196.3638 C142.6165,190.7937 129.6496,188.0316 114.5575,188.0316 C99.4654,188.0316 85.3379,191.104 72.661,196.6742 C85.3375,202.2507 99.2291,205.4889 114.3215,205.4889 C129.4227,205.4889 142.6363,201.9338 155.315,196.3652 L155.2962,196.3638 Z"/>
    <path fill="#333" fill-rule="nonzero" stroke="#333" stroke-width="1.677" d="M154.9501,162.1658 C162.9352,148.8195 173.4409,123.6482 160.3129,80.8111 C149.2984,44.8702 116.8465,9.8007 93.2414,17.5936 C72.3048,24.5065 49.5139,74.0124 49.5139,99.9834 C49.5139,124.8297 59.5773,146.2341 71.1955,161.7285 L154.9759,162.1375 L154.9501,162.1658 Z"/>
    <circle cx="101.592" cy="8.794" r="8.794" fill="#333" fill-rule="nonzero" stroke="#333" stroke-width="1.677"/>
    <path fill="#333" fill-rule="nonzero" stroke="#333" stroke-linejoin="bevel" stroke-width="1.677" d="M150.9545,167.0108 L150.9514,167.0016 C140.6697,162.5804 128.8429,158.8753 113.5381,158.8753 C98.221,158.8753 86.4094,162.5836 76.1248,167.0108 C76.1248,167.0108 73.8205,181.9824 73.5963,185.3556 C73.2507,190.5416 72.7299,196.668 72.7299,196.668 C85.4048,191.0979 99.5362,188.0254 114.6232,188.0254 C129.4258,188.0254 142.8657,190.9872 155.3619,196.3576 C154.9118,192.2129 154.3926,188.0714 153.3572,181.85 C152.7909,178.5781 150.9347,166.969 150.9347,166.969 L150.9545,167.0108 Z"/>
    <path stroke="#FFF" stroke-linecap="round" stroke-linejoin="bevel" stroke-width="1.677" d="M150.577,187.0828 C139.18,183.5435 127.0121,181.5985 114.4567,181.5985 C101.688,181.5985 88.6383,183.6785 76.9333,187.353"/>
    <path stroke="#FFF" stroke-linecap="round" stroke-width="1.677" d="M3.45 19.1631C12.9729 15.3287 23.892 12.2102 37.6165 12.2102 51.4143 12.2102 62.3718 15.3626 71.9309 19.2213M78.1382 12.3991C66.05 2.7306 56.3767.1404 38.4755.1404 23.4825.1404 8.0116 4.1098.5997 10.8997" transform="translate(75.931 146.495)"/>
    <polygon fill="#FFF" fill-rule="nonzero" stroke="#333" stroke-width="1.677" points="135.413 83.639 131.323 87.761 110.622 87.761 110.622 69.073 114.743 64.952 106.437 56.646 98.132 64.952 102.284 69.104 102.284 87.761 81.457 87.761 77.336 83.639 69.03 91.945 77.336 100.251 81.52 96.098 102.284 96.098 102.284 118.876 98.132 123.028 106.437 131.334 114.743 123.028 110.622 118.907 110.622 96.098 131.26 96.098 135.413 100.251 143.719 91.945"/>
  </g>
</svg>
