<svg xmlns="http://www.w3.org/2000/svg" width="162" height="211" viewBox="0 0 162 211">
  <g fill="none" fill-rule="evenodd" stroke-width="2.684" transform="translate(1 1)">
    <path fill="#333" fill-rule="nonzero" stroke="#333" stroke-linecap="square" d="M154.6059,186.9229 L151.5566,186.9229 L151.5566,168.6054 L136.8785,152.1684 L136.7295,152.1684 L136.7295,55.2059 L136.8785,55.2059 L155.9762,36.9391 L156.0975,36.9391 L156.0975,5.6887 C156.0975,2.9574 153.9776,0.7452 151.3677,0.7452 L124.9468,0.7452 L124.9468,17.7306 L110.118,22.6432 L96.4536,17.7306 L96.4536,0.7452 L63.8884,0.7452 L63.8884,17.7306 L50.2212,22.6432 L35.394,17.7306 L35.394,0.7452 L8.9778,0.7452 C6.3663,0.7452 4.2496,2.9573 4.2496,5.6887 L4.2496,36.9391 L4.3034,36.9391 L23.4687,55.2059 L23.4687,152.1684 L8.789,168.6054 L8.789,186.9229 L5.7366,186.9229 C3.0053,186.9229 0.7916,189.1381 0.7916,191.8723 L0.7916,203.4949 C0.7916,206.2231 3.0052,208.4384 5.7366,208.4384 L154.6002,208.4384 C157.3346,208.4384 159.5468,206.2232 159.5468,203.4949 L159.5468,191.8723 C159.5468,189.1666 157.332,186.9329 154.598,186.9329 L154.6059,186.9229 Z"/>
    <line x1="13.627" x2="145.633" y1="186.923" y2="186.923" stroke="#FFF" stroke-linecap="round"/>
    <line x1="14.209" x2="145.054" y1="168.613" y2="168.613" stroke="#FFF" stroke-linecap="round"/>
    <line x1="131.098" x2="27.004" y1="152.19" y2="152.19" stroke="#FFF" stroke-linecap="round"/>
    <line x1="27.583" x2="131.68" y1="55.227" y2="55.227" stroke="#FFF" stroke-linecap="round"/>
    <line x1="10.72" x2="152.029" y1="36.949" y2="36.949" stroke="#FFF" stroke-linecap="round"/>
  </g>
</svg>
