<svg xmlns="http://www.w3.org/2000/svg" width="197" height="412" viewBox="0 0 197 412">
  <path fill="#E7E7E7" stroke="#000" stroke-width="4" d="M90.3,408.664915 C84.7,407.264915 83.8,405.864915 84.2,399.164915 L84.5,393.064915 L79.1,393.064915 C74.7,392.964915 73.4,392.564915 71.9,390.664915 C69.3,387.564915 69.4,381.564915 72.1,378.164915 C73.8,375.964915 74.9,375.564915 79.1,375.564915 C84.6,375.564915 84.9,374.964915 82.5,369.264915 C81.7,367.264915 81,364.564915 81,363.264915 C81,361.964915 79.7,359.664915 78,358.064915 C75,355.164915 74.1,352.164915 76,351.064915 C78.3,349.664915 76.6,348.664915 68.3,346.664915 C63.4,345.464915 56.6,343.164915 53.2,341.464915 C44.7,337.364915 43.3,334.264915 44.9,324.064915 C46.7,313.464915 52.3,297.564915 59.5,282.964915 C63.1,275.664915 66,269.364915 66,268.864915 C66,268.364915 63.7,266.864915 60.8,265.464915 C56.1,263.264915 55.5,262.564915 54.1,258.064915 C52.8,253.964915 51.9,252.764915 48.8,251.364915 C46.8,250.364915 44.9,248.664915 44.5,247.564915 C43.5,244.564915 46.4,240.864915 50.2,240.064915 C56.2,238.864915 57,238.464915 57,236.564915 C57,233.764915 61.6,228.864915 65.5,227.564915 C67.9,226.764915 69.2,225.564915 69.8,223.764915 C70.8,219.864915 70.4,175.864915 69.1,163.864915 C66.1,135.664915 56.9,110.864915 42.9,93.3649153 C39.6,89.3649153 36.7,84.9649153 36.4,83.5649153 C35.3,78.3649153 34,76.5649153 29.9,74.4649153 C20.3,69.5649153 10.6,57.7649153 7.5,47.1649153 C5.6,40.4649153 6.1,36.0649153 9.2,32.0649153 L11.4,29.2649153 L8.9,27.3649153 C2.9,22.7649153 2,21.6649153 2,18.7649153 C2,12.1649153 4.2,10.6649153 16.5,8.16491532 C48.2,1.96491532 148.6,0.364915317 179.5,5.66491532 C192.2,7.76491532 195,9.56491532 195,15.4649153 C195,19.3649153 193,22.0649153 188.3,24.4649153 C185.5,25.8649153 185.4,27.0649153 188,30.2649153 C189.5,32.1649153 190,34.3649153 190,38.5649153 C190,49.4649153 180.3,63.8649153 167.6,72.0649153 C161.5,75.9649153 159,78.8649153 159,82.1649153 C159,83.3649153 156.9,86.7649153 154.4,89.7649153 C136.7,110.464915 126.9,137.364915 123.9,173.164915 C122.6,189.464915 122.2,219.864915 123.2,223.764915 C123.8,225.564915 125.1,226.764915 127.5,227.564915 C131.4,228.864915 136,233.764915 136,236.664915 C136,237.864915 136.9,238.664915 138.5,239.064915 C139.9,239.364915 142.1,239.764915 143.5,240.064915 C144.9,240.364915 146.7,241.664915 147.5,242.964915 C149.7,246.264915 147.8,250.264915 143.6,251.364915 C140.9,252.064915 140.2,252.964915 138.7,257.764915 C136.9,263.164915 136.6,263.464915 131.4,265.564915 C128.4,266.764915 126,268.264915 126,268.864915 C126,269.464915 128,273.764915 130.4,278.464915 C139.5,296.364915 147,319.364915 147,329.564915 C147,338.164915 140.9,342.564915 123.3,346.664915 C114.5,348.664915 112.7,349.664915 115,351.064915 C116.9,352.264915 116,355.364915 113,357.864915 C111.4,359.264915 110,361.364915 110,362.464915 C110,363.564915 109.1,366.764915 108,369.564915 C106.9,372.364915 106,374.864915 106,375.064915 C106,375.364915 108.2,375.564915 110.8,375.564915 C117.5,375.564915 119.2,377.064915 119.7,383.664915 C120.3,391.364915 118.9,392.964915 111.4,393.064915 L105.5,393.064915 L105.8,399.264915 C106.1,404.764915 105.9,405.564915 103.8,406.964915 C100.9,408.864915 94.4,409.664915 90.3,408.664915 Z" transform="matrix(1 0 0 -1 0 411.565)"/>
</svg>
