<svg xmlns="http://www.w3.org/2000/svg" width="197" height="411" viewBox="0 0 197 411">
  <path fill="#4F4F4F" stroke="#FFF" stroke-width="3" d="M89.8,408.984307 C83.7,407.884307 82.8,406.484307 83.2,399.084307 L83.5,392.484307 L78.5,392.784307 C71.3,393.284307 69.5,391.584307 69.5,384.584307 C69.5,377.284307 71.9,374.584307 78.7,374.384307 C81.4,374.284307 83.6,374.184307 83.7,374.084307 C83.9,374.084307 83.1,371.684307 82,368.984307 C80.9,366.184307 80,362.884307 80,361.684307 C80,360.284307 78.8,358.484307 77,357.184307 C73.9,354.784307 73.2,352.184307 75.2,350.184307 C77,348.384307 75.4,347.484307 65.5,345.184307 C49.3,341.284307 43,336.784307 43,329.084307 C43,319.784307 50,298.384307 59.2,279.984307 C63.6,271.084307 65.5,266.084307 64.9,265.384307 C64.4,264.784307 62,263.484307 59.5,262.584307 C55.5,260.984307 55,260.484307 53.5,255.484307 C52.2,250.984307 51.4,249.884307 48.3,248.284307 C46.3,247.284307 44.3,245.484307 43.8,244.184307 C42.7,240.984307 46.6,237.184307 51.9,236.384307 C55.3,235.884307 56.1,235.284307 56.6,233.084307 C57.5,229.584307 60.4,226.584307 65,224.484307 C67.1,223.484307 69.1,222.084307 69.5,221.284307 C72.1,214.284307 70.5,161.684307 67,143.684307 C62.6,120.884307 54.1,101.784307 41.4,86.1843069 C39,83.2843069 36.8,79.4843069 36.5,77.6843069 C35.6,73.3843069 34.4,71.9843069 28,67.7843069 C13.7,58.4843069 4.1,41.8843069 6.9,31.2843069 C7.5,29.0843069 8.7,26.6843069 9.5,25.9843069 C11.9,23.9843069 11.3,22.5843069 6.5,19.1843069 C2.6,16.4843069 2,15.4843069 2,12.5843069 C2,6.28430692 5.2,4.88430692 24,2.78430692 C39.7,1.08430692 131.2,1.08430692 156,2.88430692 C177.1,4.28430692 189.1,6.18430692 192.6,8.48430692 C194.4,9.58430692 195,10.8843069 195,13.5843069 C195,17.0843069 194.4,17.9843069 188.1,22.7843069 L185.8,24.5843069 L187.9,27.9843069 C190.4,32.1843069 190.7,38.8843069 188.5,44.9843069 C185.5,53.4843069 175.6,64.9843069 168,68.9843069 C163.9,71.0843069 160,75.1843069 160,77.4843069 C160,79.6843069 158.5,81.8843069 150.7,91.8843069 C137.8,108.284307 127.8,135.284307 125,161.484307 C123.7,173.984307 122.5,216.784307 123.4,220.284307 C123.8,222.084307 125.1,223.184307 127.5,223.984307 C131.4,225.284307 136,230.184307 136,233.084307 C136,235.184307 136.6,235.484307 142.3,236.484307 C150,237.784307 150.9,245.384307 143.6,248.384307 C140.7,249.584307 139.9,250.684307 138.7,254.684307 C137.5,258.984307 136.9,259.784307 132.2,261.984307 C129.4,263.384307 126.8,264.884307 126.4,265.184307 C126.1,265.584307 128.1,270.484307 130.8,276.184307 C140.6,296.084307 145.7,311.984307 146.7,325.184307 L147.3,332.984307 L143.6,336.484307 C140,339.884307 127.6,344.684307 117.8,346.484307 C113.5,347.284307 113.6,347.084307 115.2,350.484307 C116.2,352.784307 116,353.384307 113.2,356.284307 C111.4,358.084307 110,360.284307 110,361.184307 C110,362.084307 109.1,364.984307 108,367.584307 C106.9,370.184307 106.1,372.784307 106.3,373.384307 C106.5,373.984307 108.6,374.484307 111,374.584307 C114.4,374.584307 115.8,375.184307 117.6,377.384307 C120.7,380.884307 120.8,386.684307 117.9,390.384307 C116,392.884307 115.2,393.084307 110.6,392.784307 L105.5,392.484307 L105.8,398.284307 C106.2,405.084307 104.7,407.484307 99.6,408.484307 C97.9,408.884307 95.8,409.284307 95,409.384307 C94.2,409.584307 91.8,409.384307 89.8,408.984307 Z" transform="matrix(1 0 0 -1 0 410.984)"/>
</svg>
