<svg xmlns="http://www.w3.org/2000/svg" width="185" height="313" viewBox="0 0 185 313">
  <path fill="#4F4F4F" stroke="#FFF" stroke-width="3" d="M108.3,309.544802 C107.8,308.844802 106.6,305.344802 105.6,301.744802 C104.7,298.144802 103.5,294.544802 103,293.744802 C102.4,292.744802 99.4,292.144802 93.3,291.644802 C83.2,290.944802 82,290.444802 68.6,280.844802 C56.6,272.344802 43.1,265.244802 37,264.244802 C29.8,263.144802 20.6,257.544802 18.1,252.844802 C16.4,249.744802 15.4,236.244802 16.8,235.344802 C17.4,234.944802 20.7,235.344802 24.2,236.144802 C27.7,236.944802 30.6,237.444802 30.8,237.244802 C31,237.144802 27.8,235.244802 23.8,233.044802 C16.1,228.844802 14.5,226.444802 17.5,223.344802 C18.8,222.044802 21.2,221.744802 29.1,221.744802 C40.1,221.744802 46.6,223.544802 52.1,228.144802 C55.1,230.644802 55.5,230.744802 69.1,230.744802 C81.1,230.744802 83.6,231.044802 87.4,232.844802 C89.8,233.944802 92.6,235.744802 93.6,236.844802 C96.4,239.944802 97,239.144802 97,232.344802 C97,226.944802 96.4,224.844802 93.5,219.244802 C88.7,209.944802 82.9,202.044802 71,188.744802 C52.5,167.944802 46.3,159.444802 40.5,146.244802 C34.7,133.144802 32.5,118.944802 35.1,112.144802 C35.6,110.544802 38.8,106.744802 42.1,103.644802 C45.3,100.444802 48,97.044802 48,96.044802 C48,95.044802 45.1,90.444802 41.5,85.944802 C37.9,81.444802 35,77.044802 35,76.244802 C35,72.944802 31.8,68.644802 27.7,66.644802 C25.4,65.444802 21,61.844802 17.9,58.744802 C7.8,48.344802 3.6,35.544802 7.9,28.244802 C9,26.244802 10,24.244802 10,23.844802 C10,23.344802 8.3,21.844802 6.1,20.444802 C-6.81676937e-14,16.344802 0.1,9.84480197 6.3,7.24480197 C21.1,1.04480197 148.7,0.0448019737 175,5.84480197 C180.8,7.14480197 183,9.24480197 183,13.444802 C183,16.144802 182.3,17.244802 179,19.544802 C174.6,22.544802 174.2,24.144802 176.8,27.044802 C179.5,30.144802 179,39.944802 175.8,46.244802 C171.7,54.144802 166.1,60.444802 158.5,65.544802 C152.7,69.544802 151.4,70.944802 150.4,74.444802 C149.7,76.744802 146.4,82.144802 143.1,86.444802 C139.7,90.844802 137,95.044802 137,96.044802 C137,98.644802 142.4,104.144802 150.1,109.444802 L157.2,114.244802 L156.6,118.944802 C156.1,122.144802 156.6,126.244802 158.1,132.244802 C160,139.844802 160.1,141.644802 159.1,147.744802 C157.2,159.644802 157.6,164.844802 161.5,174.844802 C164.8,183.344802 165,184.744802 165,195.444802 C165,205.544802 165.4,207.944802 168.1,216.344802 L171.3,225.744802 L167.2,236.144802 C164.9,241.944802 162.1,251.244802 161,256.844802 C159.8,262.544802 158.7,267.444802 158.4,267.844802 C158.2,268.244802 153.1,271.944802 147.2,276.144802 C139.5,281.544802 135.9,284.744802 134.7,287.244802 C133.2,290.444802 132.7,290.744802 128.6,290.744802 C121,290.744802 119.7,291.744802 114.6,301.644802 C112,306.644802 109.8,310.744802 109.6,310.744802 C109.4,310.744802 108.8,310.144802 108.3,309.544802 Z" transform="matrix(1 0 0 -1 0 312.745)"/>
</svg>
