<svg xmlns="http://www.w3.org/2000/svg" width="185" height="313" viewBox="0 0 185 313">
  <path fill="#E7E7E7" stroke="#000" stroke-width="4" d="M73.1,303.7978 C66.7,291.8978 66.8,291.9978 59.9,291.9978 C54.1,291.9978 53.9,291.8978 52.3,288.5978 C51.2,286.1978 47.6,282.9978 40.4,277.9978 C34.7,273.9978 29.6,270.1978 29,269.4978 C28.4,268.6978 27,263.7978 25.9,258.3978 C24.8,253.0978 22.1,244.1978 20,238.7978 C17.8,233.2978 16,228.1978 16,227.4978 C16,226.7978 17.4,221.9978 19.1,216.7978 C22,208.0978 22.1,206.8978 21.6,197.3978 C21,187.4978 21,187.0978 24.6,177.8978 C28.6,167.5978 28.9,164.1978 27,150.4978 C26,143.3978 26.1,141.4978 27.8,134.4978 C29,129.5978 29.6,124.4978 29.3,121.4978 L28.8,116.4978 L33.4,113.6978 C39.7,109.7978 47.6,102.4978 48.3,99.9977997 C48.9,97.7977997 46.6,93.9977997 39.4,85.1977997 C37,82.2977997 35,78.9977997 35,77.9977997 C35,74.3977997 33.7,72.7977997 26.9,68.3977997 C11.1,57.9977997 2,38.2977997 8.7,29.1977997 L10.9,26.1977997 L6.5,22.4977997 C3,19.6977997 2,18.1977997 2,15.8977997 C2,10.9977997 3.7,9.19779969 9.3,7.59779969 C31.8,1.19779969 120.7,-0.00220031166 161.7,5.49779969 C179.4,7.89779969 183,9.69779969 183,16.0977997 C183,18.9977997 182.4,20.3977997 180,22.2977997 C178.4,23.6977997 176.5,24.9977997 175.8,25.1977997 C174.8,25.5977997 175.1,26.7977997 176.9,29.9977997 C178.8,33.4977997 179.2,35.1977997 178.7,39.5977997 C177.6,49.8977997 169.3,61.6977997 157.5,69.5977997 C152.8,72.7977997 151.5,74.2977997 150.5,77.5977997 C149.9,79.7977997 146.5,85.0977997 143.2,89.3977997 C139.8,93.5977997 137,97.7977997 137,98.6977997 C137,99.5977997 139.4,102.6978 142.4,105.4978 C150.6,113.4978 151.5,115.1978 151.4,123.3978 C151.3,128.5978 150.4,133.0978 148.1,139.9978 C142,158.0978 135.5,167.9978 114,191.9978 C103.6,203.4978 94.7,216.0978 91,224.1978 C89,228.5978 88.1,240.9978 89.8,240.9978 C90.3,240.9978 91.7,239.7978 93.1,238.3978 C97.5,233.5978 101.2,232.6978 116,232.8978 L129.4,232.9978 L133.7,229.9978 C141.3,224.4978 152.3,222.0978 162.5,223.6978 C166.3,224.2978 167.7,225.0978 168.7,226.9978 C170.2,230.0978 169.7,230.6978 161,235.5978 C155.3,238.6978 154.9,239.0978 158,238.4978 C159.9,238.1978 163.2,237.6978 165.4,237.2978 L169.3,236.6978 L168.8,245.3978 C168.4,253.1978 168.1,254.2978 165.5,256.9978 C161.9,260.7978 151.6,265.9978 147.9,265.9978 C144,265.9978 129.1,273.8978 118.5,281.5978 C105.3,291.0978 102.8,292.2978 93.5,292.7978 C89.1,292.9978 85,293.5978 84.4,294.0978 C83.7,294.5978 82.2,298.5978 80.9,302.9978 C79.7,307.3978 78.3,310.9978 77.8,310.9978 C77.4,310.9978 75.3,307.6978 73.1,303.7978 Z" transform="matrix(1 0 0 -1 0 312.998)"/>
</svg>
