<svg xmlns="http://www.w3.org/2000/svg" width="128" height="203" viewBox="0 0 128 203">
  <path fill="#E7E7E7" stroke="#000" stroke-width="4" d="M57,199.662308 C48.7,197.362308 40.5,190.662308 36.5,182.962308 C34.4,178.962308 34.2,171.662308 36,165.462308 C37,161.562308 38.7,159.162308 43.4,154.662308 C50.2,148.062308 50.2,146.462308 43.4,144.062308 C32.9,140.262308 31,139.162308 31,136.562308 C31,134.562308 32.3,133.162308 36.8,130.062308 C39.9,127.962308 43.5,125.162308 44.7,123.762308 C48.6,119.662308 51.1,112.462308 51.7,103.662308 C52.9,85.862308 48.1,72.262308 37.7,63.862308 C34.5,61.262308 31.1,57.662308 30.2,55.862308 C29,53.462308 27.3,52.162308 24.3,51.262308 C11.9,47.162308 1.2,27.862308 7.5,20.962308 C9.5,18.762308 9.5,18.762308 7.5,17.362308 C2.7,13.862308 1.9,12.762308 2.2,10.162308 C2.7,5.86230801 7.5,4.26230801 23.5,2.86230801 C39.6,1.56230801 90,2.16413366 105,3.96230801 C121.2,5.86230801 126,7.86230801 126,12.562308 C126,14.562308 122.6,18.262308 119.8,19.162308 C119.1,19.462308 119.5,20.762308 121,22.662308 C122.9,25.262308 123.2,26.562308 122.6,30.062308 C121,39.862308 113,49.462308 103.8,52.562308 C99.8,53.862308 98.8,54.662308 98.3,57.062308 C98,58.562308 96.7,60.662308 95.3,61.462308 C82.2,70.062308 77.2,81.962308 78.3,101.762308 C78.6,107.062308 79.4,113.162308 80.1,115.262308 C81.7,120.162308 87.6,126.862308 93.9,130.862308 C102.5,136.462308 101.9,138.762308 90.3,143.162308 C85.6,144.962308 81.5,147.062308 81.2,147.862308 C80.9,148.762308 81.9,150.262308 84.1,151.862308 C92.6,158.362308 96,164.862308 96,174.662308 C96,191.462308 75.2,204.862308 57,199.662308 Z" transform="matrix(1 0 0 -1 0 202.962)"/>
</svg>
