<svg xmlns="http://www.w3.org/2000/svg" width="128" height="202" viewBox="0 0 128 202">
  <path fill="#4F4F4F" stroke="#FFF" stroke-width="3" d="M56.6,198.452987 C43.7,194.352987 35,184.152987 35,173.052987 C35,164.352987 36.8,160.152987 43.3,153.752987 C46.8,150.352987 49,147.252987 48.8,146.252987 C48.6,145.352987 46.4,143.852987 43.5,142.852987 C32.9,139.052987 31,137.852987 31,135.452987 C31,133.752987 32.6,132.052987 37,129.052987 C43.9,124.352987 48.4,118.652987 50.2,112.652987 C52,106.652987 51.7,87.6529871 49.7,81.0529871 C47.5,73.5529871 43.2,67.3529871 36.9,62.5529871 C34.1,60.4529871 31.1,57.1529871 30.4,55.4529871 C29.4,52.9529871 28,51.8529871 24.4,50.6529871 C15.2,47.5529871 8.4,39.8529871 6,30.0529871 C4.9,25.5529871 5,24.7529871 6.9,21.6529871 L9,18.2529871 L5.5,16.1529871 C2.7,14.5529871 2,13.5529871 2,11.0529871 C2,8.4529871 2.6,7.7529871 5.3,6.5529871 C17.1,1.6529871 111.2,0.7529871 122.5,5.4529871 C125.2,6.6529871 126,7.5529871 126,9.4529871 C126,11.9529871 125.7,12.3529871 121.1,15.9529871 L118.6,17.7529871 L120.8,20.5529871 C123.4,23.8529871 123.5,25.0529871 121.5,31.7529871 C119,40.2529871 111.4,48.0529871 103.7,50.1529871 C100.8,50.9529871 99.5,51.9529871 98.5,54.3529871 C97.8,56.1529871 94.3,59.9529871 90.9,62.9529871 C86.4,66.9529871 83.9,70.1529871 81.6,74.9529871 C78.6,81.3529871 78.5,82.0529871 78.5,95.0529871 C78.5,111.752987 79.9,116.552987 86.8,123.252987 C89.4,125.752987 93.4,129.052987 95.8,130.452987 C102.9,134.852987 101.1,138.152987 89.4,142.052987 C86,143.252987 82.6,144.852987 81.9,145.752987 C80.8,147.052987 81,147.652987 83.5,149.752987 C93.2,157.752987 95.9,162.152987 96.7,171.052987 C97.6,180.952987 91,191.452987 80.6,196.552987 C73.8,199.852987 63.5,200.652987 56.6,198.452987 Z" transform="matrix(1 0 0 -1 0 202.053)"/>
</svg>
