<svg xmlns="http://www.w3.org/2000/svg" width="172" height="356" viewBox="0 0 172 356">
  <path fill="#E7E7E7" stroke="#000" stroke-width="4" d="M81.5,353.662793 C72.8,351.362793 69.4,341.562793 74.5,333.862793 C77.6,329.462793 77.1,328.462793 69.6,324.762793 C62.8,321.362793 56.5,315.062793 53,308.362793 L50.3,302.962793 L48.7,306.062793 C47.1,309.062793 46.9,309.062793 40.9,308.762793 C37.5,308.562793 34.4,308.162793 34.1,307.862793 C33.8,307.562793 34.9,303.462793 36.4,298.862793 C37.9,294.162793 40.2,285.962793 41.5,280.562793 C44.2,269.262793 48.1,259.162793 54.5,246.362793 C57,241.462793 59,237.062793 59,236.562793 C59,236.162793 56.9,234.862793 54.2,233.762793 C49.9,231.962793 49.3,231.262793 48,226.862793 C46.8,223.062793 45.9,221.762793 44.1,221.362793 C40.9,220.662793 39.5,218.262793 40.4,215.062793 C40.9,213.062793 42,212.162793 45.7,211.162793 C49.1,210.162793 50.6,209.162793 50.8,207.862793 C51.4,205.062793 53.9,202.462793 58,200.462793 C61.2,198.962793 61.6,198.362793 62.4,192.862793 C63.8,183.862793 61.5,142.262793 59,130.062793 C55,110.762793 47.8,94.4627932 38,82.1627932 C35.2,78.7627932 32.5,74.2627932 32,72.1627932 C31.1,69.1627932 29.8,67.6627932 25.7,65.0627932 C10.5,55.3627932 2.2,38.0627932 8.1,28.4627932 C9.2,26.6627932 10,25.0627932 9.8,24.9627932 C9.6,24.8627932 7.8,23.5627932 5.8,22.0627932 C2.7,19.7627932 2,18.6627932 2,15.9627932 C2,14.0627932 2.8,11.9627932 3.8,11.0627932 C14.6,1.26279316 144.7,-0.837206843 165.8,8.36279316 C169.7,10.1627932 170,10.4627932 170,14.2627932 C170,18.2627932 169.3,19.0627932 162.1,24.0627932 C161.9,24.2627932 162.5,25.2627932 163.6,26.4627932 C166.4,29.6627932 166.2,39.3627932 163.1,45.6627932 C160.1,51.7627932 152,60.7627932 146.4,63.9627932 C141.5,66.8627932 139,69.7627932 139,72.8627932 C139,73.9627932 136.3,78.1627932 133.1,82.1627932 C119.2,99.4627932 111.3,122.362793 109,151.762793 C107.8,166.662793 107.7,196.362793 108.8,197.962793 C109.2,198.562793 111.4,200.062793 113.7,201.162793 C116.7,202.762793 118.1,204.262793 118.9,206.662793 C119.9,209.562793 120.7,210.262793 124.2,210.962793 C129.3,212.062793 131.4,214.862793 129.7,218.362793 C129,219.662793 127.4,221.062793 126,221.362793 C124.1,221.762793 123.1,223.062793 121.9,226.862793 C120.5,231.262793 119.9,231.962793 115.7,233.662793 C113.1,234.762793 111,236.062793 111,236.462793 C111,236.962793 112.6,240.462793 114.5,244.262793 C120.9,257.062793 125.1,268.462793 129,283.762793 C131.2,292.062793 133.5,300.762793 134.2,303.062793 C134.8,305.362793 135.2,307.562793 134.9,307.762793 C133.8,308.862793 127.2,309.462793 126.6,308.462793 C126.3,307.962793 125.1,307.762793 124.1,308.062793 C122.8,308.362793 121.6,307.762793 120.5,305.962793 L118.7,303.362793 L116.4,308.262793 C113.4,314.762793 107.1,321.062793 99.3,325.162793 C95.9,326.962793 92.8,328.862793 92.5,329.362793 C92.2,329.862793 93.1,331.862793 94.5,333.962793 C100,341.962793 95.9,351.962793 86.5,353.662793 C84.8,353.962793 82.6,353.962793 81.5,353.662793 Z" transform="matrix(1 0 0 -1 0 356.363)"/>
</svg>
