<svg xmlns="http://www.w3.org/2000/svg" width="172" height="355" viewBox="0 0 172 355">
  <path fill="#4F4F4F" stroke="#FFF" stroke-width="3" d="M77.2,351.454063 C70.7,347.454063 69.5,339.154063 74.5,332.454063 C75.8,330.654063 76.7,328.754063 76.4,328.254063 C76.1,327.754063 73.1,326.054063 69.8,324.354063 C61.6,320.254063 55.5,314.354063 52.1,307.254063 L49.3,301.354063 L47.6,303.854063 C46.7,305.354063 45.1,306.454063 44,306.454063 C42.9,306.454063 42,306.954063 42,307.554063 C42,308.854063 35.1,307.854063 33.6,306.354063 C33,305.854063 33.4,303.054063 34.8,299.254063 C36,295.754063 38.4,287.354063 40.1,280.554063 C43.5,267.154063 47.5,256.354063 53.9,243.554063 C56.2,239.154063 58,235.054063 58,234.454063 C58,233.954063 55.8,232.354063 53,230.954063 C49.3,229.054063 48,227.854063 48,226.154063 C48,222.654063 45.7,219.054063 43,218.454063 C41.5,218.054063 40.1,216.754063 39.6,215.154063 C38.3,211.654063 40.8,208.954063 46,208.054063 C49.3,207.554063 49.9,206.954063 50.5,204.454063 C51.2,201.454063 54.6,198.254063 58.7,197.054063 C59.9,196.654063 61.2,195.354063 61.6,194.154063 C62.7,190.854063 62.3,157.654063 61,143.154063 C58.8,117.654063 50.2,93.6540631 37.6,78.0540631 C34.5,74.2540631 32,70.2540631 32,69.2540631 C32,66.0540631 30.2,63.7540631 25.8,61.1540631 C19.7,57.6540631 11.4,48.4540631 8.5,42.2540631 C5.3,35.4540631 5.1,27.8540631 8,24.1540631 C9.1,22.7540631 10,21.4540631 10,21.1540631 C10,20.9540631 8.2,19.5540631 5.9,18.0540631 C2.3,15.5540631 1.9,15.0540631 2.2,11.6540631 C2.6,6.35406308 6.4,4.85406308 22.5,3.25406308 C39.7,1.65406308 120.1,1.65406308 140.9,3.35406308 C165.3,5.25406308 170,6.75406308 170,12.6540631 C170,14.1540631 169.2,16.1540631 168.3,16.9540631 C167.3,17.6540631 165.4,19.1540631 164.2,20.1540631 L161.8,22.0540631 L164,25.7540631 C169.6,35.2540631 161.2,51.4540631 145.5,61.7540631 C141.8,64.1540631 140.3,65.8540631 139.6,68.4540631 C139.1,70.3540631 136.9,74.0540631 134.8,76.6540631 C119.9,94.8540631 111.3,118.754063 109,149.054063 C107.8,164.254063 107.4,191.054063 108.4,194.154063 C108.7,195.154063 111,197.054063 113.5,198.254063 C116.9,199.854063 118.1,201.154063 118.8,203.654063 C119.5,206.454063 120.3,207.154063 124.3,208.254063 C129.7,209.754063 131.7,212.354063 130,215.554063 C129.3,216.654063 127.5,218.054063 125.9,218.654063 C123.6,219.454063 122.8,220.554063 121.9,224.154063 C120.9,228.054063 120.1,228.854063 115.9,231.054063 C113.2,232.354063 111,233.754063 111,234.154063 C111,234.554063 113,238.854063 115.4,243.854063 C122.1,257.754063 124.8,265.254063 129,281.754063 C131.1,290.154063 133.6,299.054063 134.4,301.654063 C135.8,306.154063 135.8,306.354063 133.9,306.954063 C132.8,307.354063 131.3,307.154063 130.6,306.554063 C129.7,305.754063 128.8,305.854063 127.4,306.954063 C124.5,309.154063 122.6,308.754063 120.6,305.354063 L118.8,302.254063 L115.8,307.554063 C111.8,314.954063 106.9,319.754063 98.9,323.954063 C95.1,325.954063 91.8,327.854063 91.6,328.354063 C91.3,328.754063 92.2,330.654063 93.5,332.454063 C96.9,337.054063 97.4,340.454063 95.4,345.254063 C92.4,352.754063 84,355.654063 77.2,351.454063 Z" transform="matrix(1 0 0 -1 0 355.454)"/>
</svg>
