<svg xmlns="http://www.w3.org/2000/svg" width="163" height="275" viewBox="0 0 163 275">
  <path fill="#4F4F4F" stroke="#FFF" stroke-width="3" d="M79.3,272.295143 C78,272.095143 77,271.395143 77,270.895143 C77,270.395143 75.3,269.995143 73.2,269.995143 C68.1,269.995143 67,268.595143 67,261.895143 L67,256.295143 L62,253.195143 L57,250.095143 L57,259.095143 C57,270.895143 56.4,271.995143 49.6,271.995143 C44.3,271.995143 38.4,270.595143 36.5,268.795143 C36,268.295143 35.3,261.595143 35,253.895143 L34.5,239.895143 L31.3,237.395143 C29.5,235.995143 28,234.195143 28,233.395143 C28,232.495143 30.4,229.295143 33.4,226.195143 C36.3,223.095143 39,219.195143 39.4,217.695143 C39.8,216.095143 41.6,212.595143 43.5,209.795143 C45.4,207.095143 47.5,202.895143 48.1,200.695143 C49.8,194.595143 48.7,169.995143 45,131.995143 C39.9,78.6951427 36.2,65.6951427 23.8,57.6951427 C13,50.7951427 6,40.0951427 6,30.6951427 C6,27.0951427 6.5,24.7951427 7.5,23.9951427 C9.8,22.0951427 9.3,20.2951427 5.6,18.0951427 C1.8,15.6951427 0.7,12.9951427 2,9.39514266 C3.9,4.39514266 18.9,2.89514266 75.6,2.29514266 C120.8,1.79514266 146.6,2.69514266 155.3,5.09514266 C162,6.89514266 162.7,12.9951427 156.7,17.0951427 C155,18.2951427 153.3,19.4951427 153.1,19.5951427 C152.9,19.7951427 153.7,21.3951427 154.9,23.2951427 C156,25.1951427 157,28.0951427 157,29.7951427 C157,38.4951427 148.1,51.6951427 138.2,57.7951427 C130.2,62.6951427 124.8,75.5951427 122.1,96.4951427 C120,112.395143 116,169.195143 116,183.195143 C116,199.595143 116.7,202.795143 121.5,209.595143 C123.4,212.295143 125.5,216.095143 126.2,217.995143 C126.8,219.895143 129.1,223.295143 131.3,225.495143 C138.6,232.795143 139.3,235.595143 134.6,237.795143 C131.6,239.095143 131,242.395143 131,256.895143 C131,263.295143 130.5,269.195143 130,269.995143 C128.4,272.495143 111.6,271.395143 109.8,268.595143 C109.4,267.995143 109,263.795143 109,259.295143 C109,254.795143 108.6,250.795143 108,250.495143 C107.5,250.195143 107,250.295143 107,250.795143 C107,251.195143 105.2,252.595143 103,253.895143 L99,256.095143 L99,263.895143 L99,271.795143 L95.9,272.395143 C92.5,272.995143 82.9,272.995143 79.3,272.295143 Z" transform="matrix(1 0 0 -1 0 274.995)"/>
</svg>
