<svg xmlns="http://www.w3.org/2000/svg" width="163" height="275" viewBox="0 0 163 275">
  <path fill="#E7E7E7" stroke="#000" stroke-width="4" d="M71.4,272.343839 C67.8,271.843839 67,270.243839 67,262.543839 C67,257.843839 66.7,257.343839 63.2,255.043839 C61.2,253.643839 59.2,252.443839 58.8,252.243839 C58.3,252.043839 58,255.543839 58,260.043839 C58,271.743839 57.8,272.043839 47.2,272.043839 C41.7,272.043839 38,271.643839 37.2,270.843839 C36.5,270.143839 36,266.743839 35.9,263.143839 C35.9,259.443839 35.5,253.043839 35.1,248.643839 C34.5,241.743839 34.1,240.643839 31.7,238.843839 C30.2,237.743839 29,236.143839 29,235.243839 C29,234.243839 31.5,230.943839 34.5,227.643839 C37.5,224.443839 40,221.043839 40,220.043839 C40,219.043839 41.8,215.643839 43.9,212.443839 C49.7,203.743839 50.4,200.043839 49.6,182.243839 C48.8,163.443839 43.5,106.743839 41.4,94.6438392 C39.5,83.2438392 36.1,72.6438392 32.7,67.3438392 C31.3,65.0438392 27.6,61.5438392 24.5,59.5438392 C15.1,53.2438392 8.1,43.4438392 6.5,34.2438392 C6,30.8438392 6.3,29.1438392 8,25.8438392 C9.7,22.5438392 9.9,21.5438392 8.9,21.1438392 C5.7,20.1438392 1.9,15.0438392 2.2,12.4438392 C2.7,8.14383922 6.5,6.24383922 18,4.34383922 C26.8,2.84383922 35.8,2.64383922 74.5,2.54383922 C120.7,2.54383922 134.7,3.34383922 150.4,6.54383922 C158.5,8.24383922 161,10.1438392 161,14.6438392 C161,17.1438392 160.2,18.5438392 157.5,20.7438392 L153.9,23.5438392 L156,27.5438392 C157.6,30.5438392 157.9,32.5438392 157.4,35.5438392 C155.9,44.5438392 148.6,54.7438392 139.3,60.7438392 C131,66.0438392 126.9,74.8438392 123.6,94.0438392 C121.5,106.643839 117.1,158.243839 116.3,179.543839 C115.6,199.343839 116.4,204.543839 121.6,211.743839 C123.5,214.343839 125.5,218.043839 126.1,219.843839 C126.7,221.743839 129.4,225.543839 132.1,228.343839 C137.5,234.043839 138.3,237.243839 134.8,239.143839 C133.5,239.743839 132.3,240.543839 132,240.743839 C131.7,241.043839 131.3,247.443839 131,255.043839 C130.6,264.343839 130,269.343839 129.1,270.443839 C128.1,271.643839 125.9,272.043839 119.4,272.043839 C114.8,272.043839 110.8,271.543839 110.5,271.043839 C110.1,270.443839 109.6,265.743839 109.3,260.543839 L108.7,251.143839 L105.9,253.543839 C104.3,254.843839 102.1,256.143839 101,256.543839 C99.3,257.143839 99,258.043839 99,264.043839 C99,267.843839 98.7,271.143839 98.3,271.343839 C97.1,272.043839 74.9,272.843839 71.4,272.343839 Z" transform="matrix(1 0 0 -1 0 275.044)"/>
</svg>
