<svg xmlns="http://www.w3.org/2000/svg" width="164" height="213" viewBox="0 0 164 213">
  <g fill="#FFF" stroke="#20201E" stroke-width="3.495" transform="translate(2.671 2.49)">
    <path d="M153.8117,208.7023 C156.5461,208.7023 158.7567,206.4902 158.7567,203.7557 L158.7567,192.1331 C158.7567,189.3987 156.5461,187.1881 153.8117,187.1881 L4.945,187.1881 C2.2122,187.1881 0,189.3987 0,192.1331 L0,203.7557 C0,206.4901 2.212,208.7023 4.945,208.7023 L153.8117,208.7023 Z"/>
    <rect width="142.766" height="18.319" x="7.997" y="168.873"/>
    <polygon stroke-linejoin="bevel" points="150.763 168.873 136.083 152.419 22.676 152.419 7.997 168.873"/>
    <polygon stroke-linejoin="round" points="155.237 37.143 136.083 55.466 22.676 55.466 3.46 37.143"/>
    <rect width="113.256" height="96.963" x="22.676" y="55.466"/>
    <path stroke-linecap="square" d="M149.5712,0.0006 L123.1551,0.0006 L123.1551,16.9876 L108.331,21.8974 L94.6622,16.9876 L94.6622,0.0006 L62.1002,0.0006 L62.1002,16.9876 L48.4314,21.8974 L33.6058,16.9876 L33.6058,0.0006 L7.1896,0.0006 C4.5781,0.0006 2.4613,2.2127 2.4613,4.9425 L2.4613,36.1961 L154.3042,36.1961 L154.3042,4.9425 C154.3011,2.2117 152.1837,6.03961325e-14 149.5725,6.03961325e-14 L149.5712,0.0006 Z"/>
  </g>
</svg>
