<svg xmlns="http://www.w3.org/2000/svg" width="206" height="199" viewBox="0 0 206 199">
  <g fill="none" fill-rule="evenodd" transform="translate(2.607 2.87)">
    <path fill="#FFF" fill-rule="nonzero" stroke="#20201E" stroke-width="3.809" d="M125.23141,4.26325641e-14 L74.5825101,4.26325641e-14 L74.5825101,52.933 C74.5825101,60.7259 85.9807101,67.0504 100.03381,67.0504 C114.09591,67.0504 125.13181,60.7261 125.13181,52.933 C125.13181,52.244 125.22621,4.26325641e-14 125.22621,4.26325641e-14 L125.23141,4.26325641e-14 Z"/>
    <rect width="50.649" height="45.386" x="74.579" fill="#FFF" fill-rule="nonzero" stroke="#20201E" stroke-width="3.809"/>
    <line x1="74.579" x2="125.231" y2="45.382" stroke="#20201E" stroke-width="3.809"/>
    <line x1="125.231" x2="74.579" y2="45.382" stroke="#20201E" stroke-width="3.809"/>
    <path fill="#FFF" fill-rule="nonzero" stroke="#20201E" stroke-linejoin="round" stroke-width="3.809" d="M165.31261,177.7383 C145.60641,168.0143 124.18701,162.902 100.72651,162.902 C77.2661101,162.902 54.8314101,168.3538 35.1211101,178.0762 C54.8317101,187.8001 76.8854101,193.399724 100.34261,193.399724 C123.81241,193.431 145.61491,187.4849 165.30931,177.7635 L165.31261,177.7383 Z"/>
    <path fill="#FFF" fill-rule="nonzero" stroke="#20201E" stroke-linejoin="bevel" stroke-width="3.809" d="M175.15991,144.3898 C176.29051,143.4005 177.41191,142.3882 178.51171,141.3205 C202.32861,118.1473 207.78511,85.1219 190.69651,67.5573 C173.60191,49.9911 140.44401,54.5429 116.62811,77.7145 C109.51261,84.635 104.05291,92.4373 100.32631,100.4422 C96.6026101,92.4373 91.1401101,84.635 84.0274101,77.7145 C60.2121101,54.5429 27.0454101,49.9912 9.95901006,67.5573 C-7.13398994,85.1219 -1.67898994,118.1496 22.1410101,141.3205 C23.2440101,142.3912 24.3700101,143.4081 25.5083101,144.3975 C46.0730101,136.6751 72.0673101,132.0604 100.34441,132.0604 C128.59631,132.0604 154.58301,136.6852 175.12691,144.3931 L175.15991,144.3898 Z"/>
    <path fill="#FFF" fill-rule="nonzero" stroke="#20201E" stroke-width="3.809" d="M100.34581,100.4704 C104.07271,92.4639 109.53201,84.6632 116.64761,77.7459 C122.44521,72.099 128.80501,67.567 135.35211,64.1831 C124.49431,61.1292 112.70281,59.4533 100.36441,59.4533 C88.0198101,59.4533 76.2156101,61.1339 65.3548101,64.1926 C71.8927101,67.5753 78.2494101,72.1038 84.0470101,77.7463 C91.1572101,84.6677 96.5999101,92.47 100.34371,100.4611 L100.34581,100.4704 Z"/>
    <path fill="#FFF" fill-rule="nonzero" stroke="#20201E" stroke-linejoin="bevel" stroke-width="3.809" d="M174.87671,144.3898 L174.86441,144.3729 C154.31041,136.6596 128.33061,132.0528 100.07871,132.0528 C71.8023101,132.0528 45.8086101,136.6675 25.2458101,144.3899 C25.2458101,144.3899 35.1094101,152.1154 36.5368101,157.8221 C37.9624101,163.5244 38.5738101,171.703 35.1466101,178.0612 C54.8544101,168.3388 77.2917101,162.887 100.75211,162.887 C123.76381,162.887 145.91731,168.348 165.33821,177.7233 C162.20441,171.4449 162.19821,163.3677 163.58691,157.8221 C165.00271,152.1591 174.88141,144.4198 174.88141,144.4198 L174.87671,144.3898 Z"/>
    <path fill="#FFF" fill-rule="nonzero" stroke="#20201E" stroke-linejoin="bevel" stroke-width="3.809" d="M35.1273101,178.0844 C54.8350101,168.362 77.2723101,162.9102 100.73271,162.9102 C123.74441,162.9102 145.89481,168.3712 165.31881,177.7465 C163.98541,175.0643 162.58441,168.2145 162.80871,164.3942 C143.28691,156.7196 122.29341,152.524 100.42181,152.524 C78.2979101,152.524 57.0813101,156.8068 37.3741101,164.6427 C37.6258101,171.7214 36.6190101,175.2765 35.1404101,178.045 L35.1273101,178.0844 Z"/>
    <polygon fill="#333" fill-rule="nonzero" points="90.719 142.565 100.472 147.441 110.193 142.565 100.472 137.689"/>
    <polygon fill="#333" fill-rule="nonzero" points="50.858 148.92 61.24 152.161 70.081 145.774 59.698 142.534"/>
    <polygon fill="#333" fill-rule="nonzero" points="150.054 148.92 139.672 152.161 130.832 145.774 141.214 142.534"/>
    <ellipse cx="100.346" cy="60.172" fill="#FFF" fill-rule="nonzero" stroke="#20201E" stroke-width="3.809" rx="17.93" ry="13.239"/>
  </g>
</svg>
