<svg xmlns="http://www.w3.org/2000/svg" width="216" height="205" viewBox="0 0 216 205">
  <g fill="none" fill-rule="evenodd" stroke="#20201E" transform="translate(1.764 2.649)">
    <path fill="#FFF" fill-rule="nonzero" stroke-width="3.495" d="M158.77,23.4431875 C158.77,23.4431875 155.2797,4.68808753 155.2797,2.07178753 C155.2797,-0.544512474 152.6667,-0.982112474 150.0474,2.50808753 C147.4298,5.99678753 135.655,23.0067875 135.655,23.0067875 L158.7473,23.4409875 L158.77,23.4431875 Z"/>
    <path fill="#FFF" fill-rule="nonzero" stroke-width="3.495" d="M2.2866,167.301388 C3.4695,158.843088 5.0886,150.779688 7.0564,143.114188 L13.3763,140.591788 L9.158,135.543888 C11.5606,127.435788 14.3551,119.801188 17.4256,112.623988 L23.406,110.934188 L20.4489,105.877188 C23.6611,99.0520875 27.1129,92.6859875 30.6938,86.7577875 L36.2702,85.6378875 L34.2701,81.0338875 C38.2873,74.8369875 42.4134,69.1774875 46.5071,64.0405875 L52.4092,63.3938875 L50.8331,58.7977875 C55.623,53.1722875 60.2915,48.2794875 64.6079,44.0995875 L70.5116,43.7677875 L69.4793,39.5387875 C80.0083,30.0114875 87.4479,25.3750875 87.4479,25.3750875 L100.8235,29.4473875 C100.8235,29.4473875 107.2186,25.9570875 112.454,22.4683875 C112.454,22.4683875 115.9411,10.8378875 117.1023,4.44128753 C118.2683,-1.95531247 121.7554,0.950987526 122.9182,2.69618753 C124.0842,4.44128753 136.1494,17.8137875 136.1494,17.8137875 C136.1494,17.8137875 143.3678,16.8275875 148.5079,17.8137875 C156.0645,19.2715875 159.5545,24.3579875 168.2817,32.6440875 C174.6399,38.6889875 178.4558,43.9872875 180.6358,49.6540875 C182.8156,55.3239875 180.2011,55.3239875 181.0705,60.5577875 C181.9477,65.7915875 205.4974,105.043488 208.1102,109.841288 C210.7325,114.638788 217.0508,129.310888 204.6247,138.626088 C201.1376,141.243688 198.5169,142.555588 196.3401,143.423588 C196.3401,143.423588 192.8483,142.555688 191.5426,140.810588 C191.3091,140.498788 191.1893,140.308288 191.1324,140.202288 C191.0909,140.085588 191.0679,140.077888 191.1324,140.202288 C191.2661,140.541788 191.5702,141.816788 190.2322,143.423588 C188.0508,146.042788 185.2504,145.847688 183.6912,146.042788 C181.3639,146.334688 177.1486,144.300788 173.6583,139.063788 C170.168,133.829988 167.9884,132.083188 165.369,129.030888 C162.756,125.978488 148.3203,119.223888 142.6888,109.840988 C141.3815,107.664288 138.3293,108.532188 136.1493,110.278788 C133.9695,112.023888 121.7553,112.461688 116.5246,103.734588 C116.5246,103.734588 114.0498,126.678988 124.3744,142.554188 C141.3815,168.722988 170.1689,175.260988 178.8961,199.690388 L-2.84217094e-14,199.690388 C-2.84217094e-14,191.249088 0.4455,183.144188 1.2505,175.348088 L7.1969,172.211188 L2.2166,167.366188 L2.2866,167.301388 Z"/>
    <path stroke-width="2.684" d="M94.4325,35.2724875 C94.4325,35.2724875 18.2594,92.2670875 18.2594,195.194588"/>
    <path stroke-width="2.684"/>
    <path stroke-width="2.684" d="M110.1315 74.8062875C108.6783 91.0850875 116.2393 102.715588 116.5297 103.732388 116.5297 103.732388 98.2078 94.2849875 96.4658 81.7789875M116.518 103.750288C116.518 103.750288 104.3024 109.715288 95.291 105.934788M191.5523 140.811288C191.5523 140.811288 183.409 130.342388 181.0802 125.544888M141.3722 43.5624875C141.3722 43.5624875 154.783 43.6254875 159.2565 50.9746875 165.3596 61.0075875 158.384 62.3147875 158.384 62.3147875 158.384 62.3147875 151.4066 64.4976875 146.6075 57.9552875 141.4998 50.9885875 145.735 46.6151875 145.735 46.6151875L141.3934 43.5602875 141.3722 43.5624875zM206.3704 118.127988C201.5682 116.820688 198.5175 117.258488 196.3407 118.565788 196.3407 118.565788 198.5175 112.023188 194.5956 106.351688 190.6662 100.681788 184.1267 100.243888 178.4565 89.3416875"/>
    <line x1="79.017" x2="70.742" y1="49.666" y2="44.434" stroke-width="2.684"/>
    <line x1="62.006" x2="53.716" y1="68.42" y2="64.496" stroke-width="2.684"/>
    <line x1="46.744" x2="37.148" y1="90.191" y2="86.258" stroke-width="2.684"/>
    <line x1="34.528" x2="24.498" y1="115.076" y2="111.584" stroke-width="2.684"/>
    <line x1="24.935" x2="14.465" y1="144.303" y2="141.252" stroke-width="2.684"/>
    <line x1="19.263" x2="8.362" y1="173.971" y2="172.65" stroke-width="2.684"/>
  </g>
</svg>
