<svg xmlns="http://www.w3.org/2000/svg" width="133" height="200" viewBox="0 0 133 200">
  <path fill="#FFF" stroke="#000" stroke-linejoin="round" stroke-width="3.495" d="M89.3333,167.0323 C77.5355,143.6087 78.7276,101.8894 79.7139,85.7279 C98.3723,84.4483 111.7914,80.9134 111.7914,76.7489 C111.7914,72.6612 98.8751,69.1772 80.7575,67.8423 C92.3279,61.8805 100.2454,49.8231 100.2454,35.9095 C100.2454,16.0775 84.1739,-1.98951966e-13 64.3391,-1.98951966e-13 C44.5043,-1.98951966e-13 28.4328,16.0778 28.4328,35.9095 C28.4328,49.8228 36.347,61.8802 47.9206,67.8423 C29.806,69.1772 16.8838,72.6612 16.8838,76.7489 C16.8838,80.9134 30.3101,84.4483 48.9645,85.7279 C49.9538,101.89 51.1458,143.6097 39.3481,167.0323 C16.2255,171.6806 0,182.5906 0,195.3024 L128.675,195.3024 C128.675,182.5922 112.4726,171.6753 89.349,167.019 L89.3333,167.0323 Z" transform="translate(1.996 2.334)"/>
</svg>
