<svg xmlns="http://www.w3.org/2000/svg" width="50" height="47" viewBox="0 0 50 47">
  <g fill="none" fill-rule="evenodd">
    <g fill="#222">
      <circle cx="3.846" cy="8.974" r="3.526"/>
      <circle cx="14.103" cy="5.128" r="3.526"/>
      <circle cx="25" cy="3.846" r="3.526"/>
      <circle cx="35.897" cy="5.128" r="3.526"/>
      <circle cx="46.154" cy="8.974" r="3.526"/>
    </g>
    <path fill="#222" stroke="#222" stroke-linejoin="round" stroke-width="1.5" d="M7.69230769,26.9230769 C18.5897436,25 34.6153846,25 42.3076923,26.9230769 L45.5128205,10.8974359 L35.8974359,25.6410256 L35.5128205,7.56410256 L28.8461538,25 L25,6.41025641 L21.1538462,25 L14.4871795,7.56410256 L14.1025641,25.6410256 L4.48717949,10.8974359 L7.69230769,26.9230769 Z"/>
    <path fill="#222" stroke="#222" stroke-linejoin="round" stroke-width="1.5" d="M7.69230769,26.9230769 C7.69230769,29.4871795 9.61538462,29.4871795 10.8974359,32.0512821 C12.1794872,33.974359 12.1794872,33.3333333 11.5384615,36.5384615 C9.61538462,37.8205128 9.61538462,39.7435897 9.61538462,39.7435897 C7.69230769,41.6666667 10.2564103,42.9487179 10.2564103,42.9487179 C18.5897436,44.2307692 31.4102564,44.2307692 39.7435897,42.9487179 C39.7435897,42.9487179 41.6666667,41.6666667 39.7435897,39.7435897 C39.7435897,39.7435897 40.3846154,37.8205128 38.4615385,36.5384615 C37.8205128,33.3333333 37.8205128,33.974359 39.1025641,32.0512821 C40.3846154,29.4871795 42.3076923,29.4871795 42.3076923,26.9230769 C31.4102564,25 18.5897436,25 7.69230769,26.9230769 Z"/>
    <path stroke="#222" stroke-linejoin="round" stroke-width="1.5" d="M10.2564103,42.9487179 C19.8048201,46.2704797 30.1951799,46.2704797 39.7435897,42.9487179"/>
    <path stroke="#FFF" stroke-linecap="round" stroke-linejoin="round" stroke-width="1.5" d="M10.2564103,30.7692308 C19.8048201,27.447469 30.1951799,27.447469 39.7435897,30.7692308"/>
    <line x1="12.179" x2="37.821" y1="33.974" y2="33.974" stroke="#FFF" stroke-linecap="round" stroke-linejoin="round" stroke-width="1.5"/>
    <path stroke="#FFF" stroke-linecap="round" stroke-linejoin="round" stroke-width="1.5" d="M10.8974359 37.8205128C20.0547538 40.8521445 29.9452462 40.8521445 39.1025641 37.8205128M9.61538462 41.6666667C19.5512472 45.2930522 30.4487528 45.2930522 40.3846154 41.6666667"/>
  </g>
</svg>
