<svg xmlns="http://www.w3.org/2000/svg" width="45" height="46" viewBox="0 0 45 46">
  <g fill="none" fill-rule="evenodd">
    <g fill="#222" fill-rule="nonzero" stroke="#222" stroke-linejoin="round" stroke-width="1.5" transform="translate(1 1)">
      <path d="M3.90909091,40.3939394 C8.32636364,39.13 17.0827273,40.9542424 21.5,37.7878788 C25.9172727,40.9542424 34.6736364,39.13 39.0909091,40.3939394 C39.0909091,40.3939394 41.2409091,41.0975758 43,43 C42.1139394,44.2639394 40.85,44.29 39.0909091,43.6515152 C34.6736364,42.3875758 25.9172727,44.2509091 21.5,42.3484848 C17.0827273,44.2509091 8.32636364,42.3875758 3.90909091,43.6515152 C2.14478788,44.29 0.882151515,44.2639394 0,43 C1.76430303,40.4721212 3.90909091,40.3939394 3.90909091,40.3939394 Z"/>
      <path d="M11.7272727 35.1818182C14.9848485 38.4393939 28.0151515 38.4393939 31.2727273 35.1818182 31.9242424 33.2272727 31.2727273 32.5757576 31.2727273 32.5757576 31.2727273 29.3181818 28.0151515 27.3636364 28.0151515 27.3636364 35.1818182 25.4090909 35.8333333 12.3787879 21.5 7.16666667 7.16666667 12.3787879 7.81818182 25.4090909 14.9848485 27.3636364 14.9848485 27.3636364 11.7272727 29.3181818 11.7272727 32.5757576 11.7272727 32.5757576 11.0757576 33.2272727 11.7272727 35.1818182zM24.7575758 3.90909091C24.7575758 5.70820032 23.2991094 7.16666667 21.5 7.16666667 19.7008906 7.16666667 18.2424242 5.70820032 18.2424242 3.90909091 18.2424242 2.1099815 19.7008906.651515152 21.5.651515152 23.2991094.651515152 24.7575758 2.1099815 24.7575758 3.90909091z"/>
    </g>
    <path stroke="#FFF" stroke-linecap="round" stroke-width="1.5" d="M15.9848485,28.3636364 L29.0151515,28.3636364 M12.7272727,33.5757576 L32.2727273,33.5757576 M22.5,14.6818182 L22.5,21.1969697 M19.2424242,17.9393939 L25.7575758,17.9393939"/>
  </g>
</svg>
