<svg xmlns="http://www.w3.org/2000/svg" width="43" height="43" viewBox="0 0 43 43">
  <g fill="none" fill-rule="evenodd">
    <path fill="#222" fill-rule="nonzero" stroke="#222" stroke-linecap="round" stroke-linejoin="round" stroke-width="1.5" d="M21.3636364,4.81818182 C34.7272727,6.09090909 42.3636364,15 41.7272727,41.7272727 L12.4545455,41.7272727 C12.4545455,30.2727273 25.1818182,33.4545455 22.6363636,15"/>
    <path fill="#222" fill-rule="nonzero" stroke="#222" stroke-linecap="round" stroke-linejoin="round" stroke-width="1.5" d="M23.9090909,15 C24.3927273,18.7036364 16.8454545,24.38 13.7272727,26.4545455 C9.90909091,29 10.1381818,31.9781818 7.36363636,31.5454545 C6.03745455,30.3490909 9.15818182,27.6763636 7.36363636,27.7272727 C6.09090909,27.7272727 7.60545455,29.2927273 6.09090909,30.2727273 C4.81818182,30.2727273 0.996181818,31.5454545 0.999997141,25.1818182 C0.999997141,22.6363636 8.63636364,9.90909091 8.63636364,9.90909091 C8.63636364,9.90909091 11.0418182,7.49090909 11.1818182,5.45454545 C10.2527273,4.18945455 10.5454545,2.90909091 10.5454545,1.63636364 C11.8181818,0.363636364 14.3636364,4.81818182 14.3636364,4.81818182 L16.9090909,4.81818182 C16.9090909,4.81818182 17.9018182,2.28290909 20.0909091,1 C21.3636364,1 21.3636364,4.81818182 21.3636364,4.81818182"/>
    <path fill="#FFF" fill-rule="nonzero" stroke="#FFF" stroke-linecap="round" stroke-linejoin="round" stroke-width="1.5" d="M5.45454545,24.5454545 C5.45454545,24.8969085 5.16963575,25.1818182 4.81818182,25.1818182 C4.46672789,25.1818182 4.18181818,24.8969085 4.18181818,24.5454545 C4.18181818,24.1940006 4.46672789,23.9090909 4.81818182,23.9090909 C5.16963575,23.9090909 5.45454545,24.1940006 5.45454545,24.5454545 Z"/>
    <path fill="#FFF" fill-rule="nonzero" stroke="#FFF" stroke-linecap="round" stroke-linejoin="round" stroke-width="1.5" d="M12.4545315,11.8181818 C12.4545315,12.8725204 12.169628,13.7272307 11.8181818,13.7272307 C11.4667356,13.7272307 11.1818322,12.8725204 11.1818322,11.8181818 C11.1818322,10.7638432 11.4667356,9.90913291 11.8181818,9.90913291 C12.169628,9.90913291 12.4545315,10.7638432 12.4545315,11.8181818 L12.4545315,11.8181818 Z" transform="rotate(30.001 11.818 11.818)"/>
    <path fill="#FFF" fill-rule="nonzero" d="M24.6090909,5.32727273 L24.0363636,7.12108716 L24.6727273,7.30665417 C28.6818182,8.54376757 31.8636364,10.3870665 34.7272727,15.6571696 C37.5909091,20.9272727 38.8636364,28.4118088 38.2272727,40.708716 L38.1636364,41.3272727 L41.0272727,41.3272727 L41.0909091,40.708716 C41.7272727,28.2633552 39.9709091,19.8633552 36.9545455,14.308716 C33.9381818,8.75407685 29.5854545,6.09428304 25.2581818,5.45098407 L24.6090909,5.32727273 Z"/>
  </g>
</svg>
