<svg xmlns="http://www.w3.org/2000/svg" width="54" height="54" viewBox="0 0 54 54">
  <g fill="none" fill-rule="evenodd" stroke-linejoin="bevel">
    <line x1="27" x2="27" y1="9.686" y2="1" stroke="#222" stroke-linecap="round" stroke-width="1.5"/>
    <line x1="23.143" x2="30.857" y1="4.086" y2="4.086" stroke="#222" stroke-linecap="round" stroke-width="1.5"/>
    <path fill="#FFF" fill-rule="nonzero" stroke="#222" stroke-width="1.5" d="M27,30.3142857 C27,30.3142857 33.9428571,18.7428571 31.6285714,14.1142857 C31.6285714,14.1142857 30.0857143,10.2571429 27,10.2571429 C23.9142857,10.2571429 22.3714286,14.1142857 22.3714286,14.1142857 C20.0571429,18.7428571 27,30.3142857 27,30.3142857"/>
    <path fill="#FFF" fill-rule="nonzero" stroke="#222" stroke-linecap="round" stroke-width="1.5" d="M10.0285714,48.8285714 C18.5142857,54.2285714 33.9428571,54.2285714 42.4285714,48.8285714 L42.4285714,38.0285714 C42.4285714,38.0285714 56.3142857,31.0857143 51.6857143,21.8285714 C45.5142857,11.8 30.8571429,16.4285714 27,28 L27,33.4 L27,28 C21.6,16.4285714 6.94285714,11.8 2.31428571,21.8285714 C-2.31428571,31.0857143 10.0285714,37.2571429 10.0285714,37.2571429 L10.0285714,48.8285714 Z"/>
    <path stroke="#222" stroke-linecap="round" stroke-width="1.5" d="M10.0285714 38.0285714C18.5142857 33.4 33.9428571 33.4 42.4285714 38.0285714M10.0285714 43.4285714C18.5142857 38.8 33.9428571 38.8 42.4285714 43.4285714M10.0285714 48.8285714C18.5142857 44.2 33.9428571 44.2 42.4285714 48.8285714"/>
  </g>
</svg>
