<svg xmlns="http://www.w3.org/2000/svg" width="52" height="49" viewBox="0 0 52 49">
  <g fill="none" fill-rule="evenodd" stroke-linejoin="round">
    <path fill="#FFF" stroke="#222" stroke-linecap="round" stroke-width="1.5" d="M6.40540541 10.4594595C6.40540541 11.9521209 5.19536419 13.1621622 3.7027027 13.1621622 2.21004122 13.1621622 1 11.9521209 1 10.4594595 1 8.96679797 2.21004122 7.75675676 3.7027027 7.75675676 5.19536419 7.75675676 6.40540541 8.96679797 6.40540541 10.4594595zM28.7027027 4.37837838C28.7027027 5.87103986 27.4926615 7.08108108 26 7.08108108 24.5073385 7.08108108 23.2972973 5.87103986 23.2972973 4.37837838 23.2972973 2.88571689 24.5073385 1.67567568 26 1.67567568 27.4926615 1.67567568 28.7027027 2.88571689 28.7027027 4.37837838zM51 10.4594595C51 11.9521209 49.7899588 13.1621622 48.2972973 13.1621622 46.8046358 13.1621622 45.5945946 11.9521209 45.5945946 10.4594595 45.5945946 8.96679797 46.8046358 7.75675676 48.2972973 7.75675676 49.7899588 7.75675676 51 8.96679797 51 10.4594595zM17.2162162 5.72972973C17.2162162 7.22239122 16.006175 8.43243243 14.5135135 8.43243243 13.020852 8.43243243 11.8108108 7.22239122 11.8108108 5.72972973 11.8108108 4.23706824 13.020852 3.02702703 14.5135135 3.02702703 16.006175 3.02702703 17.2162162 4.23706824 17.2162162 5.72972973zM40.1891892 6.40540541C40.1891892 7.89806689 38.979148 9.10810811 37.4864865 9.10810811 35.993825 9.10810811 34.7837838 7.89806689 34.7837838 6.40540541 34.7837838 4.91274392 35.993825 3.7027027 37.4864865 3.7027027 38.979148 3.7027027 40.1891892 4.91274392 40.1891892 6.40540541z"/>
    <path fill="#FFF" stroke="#222" stroke-width="1.5" d="M7.75675676,29.3783784 C19.2432432,27.3513514 36.1351351,27.3513514 44.2432432,29.3783784 L46.9459459,13.1621622 L37.4864865,28.027027 L37.4864865,9.10810811 L30.0540541,27.3513514 L26,7.08108108 L21.9459459,27.3513514 L14.5135135,8.43243243 L14.5135135,28.027027 L5.05405405,13.1621622 L7.75675676,29.3783784 Z"/>
    <path fill="#FFF" stroke="#222" stroke-width="1.5" d="M7.75675676,29.3783784 C7.75675676,32.0810811 9.78378378,32.0810811 11.1351351,34.7837838 C12.4864865,36.8108108 12.4864865,36.1351351 11.8108108,39.5135135 C9.78378378,40.8648649 10.4594595,46.2702703 10.4594595,46.2702703 C19.2432432,47.6216216 32.7567568,47.6216216 41.5405405,46.2702703 C41.5405405,46.2702703 42.2162162,40.8648649 40.1891892,39.5135135 C39.5135135,36.1351351 39.5135135,36.8108108 40.8648649,34.7837838 C42.2162162,32.0810811 44.2432432,32.0810811 44.2432432,29.3783784 C32.7567568,27.3513514 19.2432432,27.3513514 7.75675676,29.3783784 Z"/>
    <path stroke="#222" stroke-linecap="round" stroke-width="1.5" d="M11.1351351 34.7837838C15.8648649 33.4324324 36.1351351 33.4324324 40.8648649 34.7837838M11.8108108 39.5135135C19.9189189 38.1621622 32.0810811 38.1621622 40.1891892 39.5135135"/>
  </g>
</svg>
