<svg xmlns="http://www.w3.org/2000/svg" width="29" height="37" viewBox="0 0 29 37">
  <path fill="#FFF" stroke="#222" stroke-linecap="round" stroke-linejoin="round" stroke-width="1.5" d="M14.5,1 C12.01375,1 10,3.01375 10,5.5 C10,6.50125 10.32625,7.42375 10.8775,8.1775 C8.68375,9.4375 7.1875,11.78875 7.1875,14.5 C7.1875,16.78375 8.245,18.82 9.89875,20.15875 C6.52375,21.35125 1.5625,26.4025 1.5625,35.3125 L27.4375,35.3125 C27.4375,26.4025 22.47625,21.35125 19.10125,20.15875 C20.755,18.82 21.8125,16.78375 21.8125,14.5 C21.8125,11.78875 20.31625,9.4375 18.1225,8.1775 C18.67375,7.42375 19,6.50125 19,5.5 C19,3.01375 16.98625,1 14.5,1 Z"/>
</svg>
