<svg xmlns="http://www.w3.org/2000/svg" width="202" height="195" viewBox="0 0 202 195">
  <g fill="none" fill-rule="evenodd" transform="translate(.749 .494)">
    <path fill="#000" fill-rule="nonzero" stroke="#000" stroke-width=".975" d="M118.797767,61.7606 C123.052867,59.2443 124.850167,55.8787 124.850167,52.1748 C124.850167,51.0903 125.003767,-8.52651283e-14 125.003767,-8.52651283e-14 L74.3516668,-8.52651283e-14 C74.3516668,-8.52651283e-14 74.1135668,51.5298 74.1135668,52.1748 C74.1135668,55.9061 76.7573668,59.295 81.0707668,61.8172 C78.0199668,62.2612 75.0028668,62.8049 72.0194668,63.4594 C76.7908668,66.5087 81.2978668,70.0697 85.4671668,74.1313 C91.3752668,79.8783 96.2633668,86.2425 100.100867,93.1047 C103.938167,86.2425 108.829367,79.8782 114.731467,74.1313 C118.909767,70.0697 123.419967,66.5026 128.191367,63.4535 C125.139667,62.7928 121.993567,62.258 118.847467,61.7861 L118.797767,61.7606 Z"/>
    <path fill="#000" fill-rule="nonzero" d="M165.391367,177.8827 C162.257567,171.5996 162.171667,163.3843 163.563367,157.8355 C164.988967,152.1272 178.510467,141.3248 178.510467,141.3248 C202.330467,118.156 207.783867,85.1293 190.695267,67.5616 C173.600667,49.9954 140.442767,54.5472 116.623667,77.7188 C109.511267,84.6408 104.054767,92.44 100.324667,100.4465 C96.5977668,92.44 91.1352668,84.6409 84.0257668,77.7188 C60.2105668,54.5472 27.0469668,49.9955 9.95416677,67.5616 C-7.13283323,85.1278 -1.67623323,118.157 22.1377668,141.3248 C23.2130668,142.3694 35.0833668,152.1272 36.5103668,157.8355 C37.9343668,163.5378 38.1325668,171.7349 34.7068668,178.0944 L35.2214668,178.0944 C35.1461668,178.1374 35.0724668,178.1651 34.9956668,178.2081 C54.7046668,187.9289 76.8858668,193.3977 100.343067,193.3977 C123.781467,193.3662 145.646767,187.5774 165.372767,177.856"/>
    <path fill="#000" fill-rule="nonzero" stroke="#FFF" stroke-linecap="round" stroke-width="3.174" d="M9.1954 48.2128C28.1641 39.3613 49.1382 34.4487 71.4502 34.4487 92.8829 34.4487 113.4537 39.7115 131.8048 47.1866M140.9221 11.4665C121.1669 4.7625 96.9586.8116 70.802.8116 44.4167.8116 20.0178 4.8364.166 11.6477" transform="translate(29.251 128.506)"/>
    <polygon stroke="#FFF" stroke-linejoin="bevel" stroke-width="1.95" points="120.874 3.684 78.37 41.783 120.874 41.783 78.37 3.684"/>
    <path stroke="#FFF" stroke-linecap="round" stroke-width="3.174" d="M157.809267,163.222 C139.617967,156.8345 120.263867,152.2016 100.188567,152.2016 C79.7266668,152.2016 60.0161668,156.9638 41.5296668,163.5753"/>
    <polygon fill="#FFF" fill-rule="nonzero" stroke="#000" stroke-width=".997" points="90.231 141.797 100.204 146.768 110.177 141.797 100.204 136.795"/>
    <polygon fill="#FFF" fill-rule="nonzero" stroke="#000" stroke-width=".997" points="49.489 148.278 60.123 151.581 69.152 145.069 58.519 141.734"/>
    <polygon fill="#FFF" fill-rule="nonzero" stroke="#000" stroke-width=".997" points="150.951 148.278 140.286 151.581 131.256 145.069 141.89 141.734"/>
    <rect width="42.523" height="38.099" x="78.37" y="3.684" stroke="#FFF" stroke-linejoin="bevel" stroke-width="1.95"/>
    <ellipse cx="99.984" cy="59.118" stroke="#FFF" stroke-width="1.95" rx="17.927" ry="13.241"/>
  </g>
</svg>
