<svg xmlns="http://www.w3.org/2000/svg" width="224" height="201" viewBox="0 0 224 201">
  <g fill="none" fill-rule="evenodd" transform="translate(2.193 2.161)">
    <path fill="#000" fill-rule="nonzero" stroke="#000" stroke-linejoin="bevel" stroke-width="2.684" d="M218.930921,51.6146 C221.606921,47.0213 220.061521,41.1287 215.468321,38.4511 C210.884521,35.772 204.991521,37.3205 202.312621,41.9121 C200.014521,45.8479 200.831721,50.7312 203.999321,53.7345 C190.892721,69.6247 166.976121,98.6103 161.196721,105.6387 C159.500721,104.8829 157.743321,104.1624 155.918521,103.4881 C156.434621,98.1007 160.222921,56.9543 162.235221,35.0732 C166.601021,35.1731 170.625821,32.282 171.768821,27.8715 C173.099121,22.7254 170.008421,17.4762 164.865321,16.1429 C159.716121,14.8126 154.468421,17.9034 153.135221,23.0479 C151.995321,27.4552 154.109121,31.9362 157.977321,33.9718 C148.499121,55.4782 130.108021,97.2302 130.062121,97.4033 C130.052921,97.4448 130.059021,97.4878 130.049821,97.5292 C128.378421,97.328 126.660821,97.1544 124.915921,97.01 C124.565721,94.6965 116.678821,46.2982 112.565021,21.0917 C117.290521,19.9872 120.814421,15.7581 120.814421,10.6948 C120.814421,4.7883 116.027621,-2.84217094e-14 110.119521,-2.84217094e-14 C104.217421,-2.84217094e-14 99.4278211,4.7884 99.4278211,10.6948 C99.4278211,15.7581 102.954921,19.9871 107.680021,21.0917 C103.587521,46.1837 95.7500211,94.254 95.3385211,96.9691 C93.5074211,97.1135 91.7224211,97.2917 89.9741211,97.4929 C89.9618211,97.433 89.9649211,97.3823 89.9465211,97.3255 C89.9035211,97.1534 71.5091211,55.3976 62.0373211,33.8909 C65.9022211,31.8616 68.0161211,27.3791 66.8763211,22.9686 C65.5429211,17.8254 60.2921211,14.7347 55.1461211,16.0667 C50.0061211,17.3986 46.9122211,22.6493 48.2455211,27.7922 C49.3884211,32.204 53.4101211,35.0937 57.7760211,34.9924 C59.7853211,56.8508 63.5613211,97.9111 64.0927211,103.3884 C62.2984211,104.0382 60.5779211,104.7387 58.9067211,105.473 C52.9002211,98.1716 29.2492211,69.5038 16.2363211,53.7387 C19.4100211,50.7355 20.2303211,45.8521 17.9323211,41.9163 C15.2563211,37.3246 9.36042107,35.7761 4.77032107,38.4553 C0.183321071,41.1329 -1.36517893,47.0256 1.31402107,51.6188 C3.60902107,55.5498 8.26692107,57.2427 12.4421211,55.957 C20.2674211,76.3374 45.5264211,141.9333 46.4922211,142.8363 L46.5014211,142.8363 C46.5198211,142.95 49.0023211,159.2211 49.2758211,164.6161 C49.5492211,169.9833 47.2142211,183.1148 47.3832211,183.1916 L47.3832211,183.2039 C47.3863211,183.2039 47.3893211,183.1978 47.3924211,183.1978 C66.1245211,191.9694 87.4578211,196.9006 110.336221,196.9006 C133.427921,196.9006 175.111021,182.78 174.916021,182.6879 C172.190821,176.9365 173.220121,142.8301 173.220121,142.8301 C174.184821,141.9176 199.774421,76.8723 207.805121,55.9571 C211.926421,57.247 216.582721,55.5481 218.879321,51.6155"/>
    <path fill="#000" fill-rule="nonzero" stroke="#FFF" stroke-linecap="round" stroke-width="2.912" d="M.2241 48.4442C19.9208 40.327 38.3579 36.843 60.9499 36.843 82.647 36.843 100.0149 40.4346 118.1741 47.9588M114.4272 10.408C98.4048 4.2511 78.7757.6287 57.5711.6287 36.1751.6287 16.3888 4.3156.2902 10.571" transform="translate(51.807 130.839)"/>
    <path stroke="#FFF" stroke-linecap="round" stroke-width="2.912" d="M168.153021,168.0514 C150.419521,162.1924 132.366221,157.9402 112.039421,157.9402 C91.3286211,157.9402 71.3699211,162.3151 52.6569211,168.3862"/>
    <polygon fill="#FFF" fill-rule="nonzero" points="101.267 146.155 110.202 150.622 119.168 146.155 110.202 141.687"/>
    <polygon fill="#FFF" fill-rule="nonzero" points="155.726 151.975 146.193 154.964 138.076 149.112 147.609 146.123"/>
    <polygon fill="#FFF" fill-rule="nonzero" points="64.71 151.975 74.242 154.964 82.359 149.112 72.826 146.123"/>
  </g>
</svg>
