<svg xmlns="http://www.w3.org/2000/svg" width="239" height="221" viewBox="0 0 239 221">
  <g fill="none" fill-rule="evenodd" transform="translate(2.795 2.411)">
    <path fill="#FFF" fill-rule="nonzero" stroke="#20201E" stroke-linecap="round" stroke-linejoin="round" stroke-width="4.152" d="M233.8242,206.6535 C231.8594,205.5828 214.1627,188.1932 197.748,188.1932 C189.2161,188.1932 182.5244,190.7694 176.6239,193.0397 C170.6403,195.344 164.9903,197.5207 156.8117,197.5207 C147.2797,197.5207 139.3669,194.6127 132.3804,192.0471 C126.7502,189.9794 121.8853,188.1928 116.9095,188.1928 C111.9356,188.1928 107.0733,189.9794 101.4417,192.0471 C94.4599,194.6125 86.5453,197.5207 77.012,197.5207 C68.8334,197.5207 63.1818,195.3439 57.1985,193.0397 C51.298,190.7692 44.6066,188.1932 36.0731,188.1932 C19.6606,188.1932 1.9632,205.5826 2.84217094e-14,206.6535 C2.84217094e-14,206.6535 7.5317,202.1848 13.7934,202.1848 C20.0551,202.1848 26.201,206.847 36.074,206.847 C41.1417,206.847 45.2694,208.4369 50.4988,210.4508 C57.1229,213.0009 65.366,216.1745 77.0131,216.1745 C89.8633,216.1745 100.274,212.3526 107.875,209.5614 C111.336,208.2879 115.2548,206.847 116.9109,206.847 C118.573,206.847 122.4902,208.2879 125.9496,209.5614 C133.5506,212.3526 143.9597,216.1745 156.8131,216.1745 C168.4574,216.1745 176.702,213.0007 183.3274,210.4508 C188.5518,208.4369 192.6826,206.847 197.7491,206.847 C207.6237,206.847 211.696,202.1848 220.0313,202.1848 C228.4314,202.1848 233.9056,206.6522 233.9056,206.6522 L233.8242,206.6535 Z"/>
    <path fill="#FFF" fill-rule="nonzero" stroke="#20201E" stroke-width="4.152" d="M135.0055,17.586 C134.3388,17.3678 133.6491,17.1835 132.947,17.0361 C136.2957,15.7918 138.6908,12.5781 138.6908,8.793 C138.6908,3.9354 134.755,2.84217094e-14 129.8978,2.84217094e-14 C125.0406,2.84217094e-14 121.1032,3.9358 121.1032,8.793 C121.1032,12.1681 123.005,15.0915 125.7962,16.5692 C100.5567,18.2083 62.242,51.4562 61.0213,107.7492 C60.5359,130.116 63.3717,148.425 71.1832,161.7235 L155.6337,161.1213 C167.98,145.5444 179.3339,125.8285 179.3339,99.9771 C179.3339,65.584 154.2281,23.8732 135.0055,17.5621 L135.0055,17.586 Z"/>
    <path fill="#FFF" fill-rule="nonzero" stroke="#20201E" stroke-width="4.152" d="M160.3001,80.8067 C151.0154,50.5102 126.5048,20.8517 104.8912,16.9348 C108.1033,15.6245 110.3648,12.4721 110.3648,8.7946 C110.3648,3.937 106.429,0.0016 101.5718,0.0016 C96.7158,0.0016 92.7772,3.9374 92.7772,8.7946 C92.7772,12.2248 94.7481,15.1928 97.6162,16.6413 C96.1246,16.8041 94.6606,17.1144 93.229,17.5875 C74.0545,23.8982 49.4984,66.2953 49.4984,99.9805 C49.4984,124.8267 59.565,146.2312 71.1831,161.7257 L155.6336,161.1235 C163.6246,147.7841 173.409,123.6221 160.2898,80.8007 L160.3001,80.8067 Z"/>
    <path fill="#FFF" fill-rule="nonzero" stroke="#000" stroke-linejoin="bevel" stroke-width="3.189" d="M155.3607,196.3658 C144.7489,191.4976 129.7157,188.0321 114.6283,188.0321 C99.534,188.0321 85.404,191.1044 72.7287,196.6776 C85.4036,202.2477 99.2984,205.4876 114.3892,205.4876 C129.4904,205.4876 142.704,201.9325 155.3827,196.364 L155.3607,196.3658 Z"/>
    <path fill="#FFF" fill-rule="nonzero" stroke="#20201E" stroke-linejoin="bevel" stroke-width="4.152" d="M150.9562,167.0127 L150.9485,167.0019 C140.6668,162.5823 128.8384,158.8771 113.5352,158.8771 C98.2181,158.8771 86.4065,162.5854 76.1219,167.0126 C76.1219,167.0126 73.8176,181.9811 73.5949,185.3606 C73.2477,190.5422 72.727,196.673 72.727,196.673 C85.4019,191.0997 99.5317,188.0275 114.6266,188.0275 C129.4245,188.0275 142.8646,190.9877 155.359,196.3612 C154.9104,192.2134 154.3912,188.0691 153.3558,181.8505 C152.7895,178.5471 150.9333,166.9695 150.9333,166.9695 L150.9562,167.0127 Z"/>
    <path fill="#FFF" fill-rule="nonzero" stroke="#20201E" stroke-linejoin="bevel" stroke-width="4.152" d="M72.7129,196.6803 C85.3878,191.107 99.5176,188.0348 114.6125,188.0348 C129.4104,188.0348 142.8506,190.995 155.3449,196.3685 C155.0238,192.8984 154.2558,190.7354 153.7719,186.3067 C141.2168,181.9085 128.488,179.6644 114.4175,179.6644 C100.1877,179.6644 86.0873,182.2482 73.4114,186.7415 C73.3485,190.6427 72.6878,196.6832 72.6878,196.6832 L72.7129,196.6803 Z"/>
    <path fill="#FFF" fill-rule="nonzero" stroke="#20201E" stroke-width="4.152" d="M76.1107,167.0127 C86.394,162.5887 98.2164,158.8002 113.5366,158.702 C126.5803,158.616 140.67,162.5824 150.9531,167.0064 C151.5169,166.4411 153.9056,165.716 155.6354,161.1166 C146.9884,151.7551 134.1319,146.8654 113.5376,146.8654 C91.5625,146.8654 79.8304,152.3449 71.1849,161.7187 C72.8838,166.312 75.5265,166.4378 76.0928,167.0041 L76.1107,167.0127 Z"/>
    <line x1="113.549" x2="113.549" y1="146.878" y2="158.707" stroke="#000" stroke-width="3.189"/>
    <polygon fill="#FFF" fill-rule="nonzero" stroke="#000" stroke-width="2.422" points="135.415 83.61 131.293 87.731 110.592 87.731 110.592 69.062 114.713 64.941 106.408 56.642 98.102 64.941 102.255 69.106 102.255 87.731 81.459 87.731 77.338 83.61 69.032 91.916 77.338 100.221 81.491 96.068 102.255 96.068 102.255 118.878 98.102 123.03 106.408 131.336 114.713 123.03 110.592 118.909 110.592 96.068 131.262 96.068 135.415 100.221 143.72 91.916"/>
  </g>
</svg>
