<svg xmlns="http://www.w3.org/2000/svg" width="225" height="202" viewBox="0 0 225 202">
  <g fill="none" transform="translate(2.245 2.722)">
    <path fill="#FFF" stroke="#20201E" stroke-linejoin="bevel" stroke-width="3.495" d="M174.324219,182.8711 C155.238819,173.9475 134.321619,169.2621 111.229419,169.2621 C88.1371193,169.2621 65.7527193,174.3777 46.0392193,183.3028 C65.1246193,192.2188 86.7748193,197.239134 109.870219,197.239134 C132.993919,197.2704 154.639119,191.7963 174.333519,182.8928 L174.324219,182.8711 Z"/>
    <path fill="#FFF" stroke="#20201E" stroke-linejoin="bevel" stroke-width="3.495" d="M172.908419,142.8213 L172.896119,142.7998 C155.740219,135.7274 135.778519,131.4245 109.861019,131.4245 C83.9121193,131.4245 63.8494193,135.7302 46.1904193,142.8215 C46.1904193,142.8215 48.1168193,159.1925 48.1966193,164.606 C48.2918193,170.7031 46.5867193,183.1969 46.5867193,183.1969 C66.2988193,174.2718 88.1465193,169.2547 111.238819,169.2547 C133.888119,169.2547 156.907419,173.903 174.333619,182.8637 C171.470619,177.1378 172.917819,142.8454 172.917819,142.8454 L172.908419,142.8213 Z"/>
    <path fill="#FFF" stroke="#20201E" stroke-linejoin="bevel" stroke-width="3.495" d="M46.6559193,183.0913 C65.2099193,174.2674 88.1465193,169.2535 111.238919,169.2535 C133.888219,169.2535 152.902619,172.4471 174.333719,182.8625 C173.470419,180.4553 172.892719,172.9772 172.705319,170.2643 C153.736519,163.2177 132.816019,159.2177 111.284119,159.2177 C89.5135193,159.2177 67.6101193,163.436 47.9596193,170.627 C47.5506193,173.427 46.6697193,183.054 46.6697193,183.054 L46.6559193,183.0913 Z"/>
    <path fill="#FFF" stroke="#20201E" stroke-width="3.495" d="M215.475019,38.4498 C210.888019,35.7707 204.995419,37.3192 202.316219,41.9124 C200.015019,45.8482 200.835319,50.73 204.002919,53.7364 C190.896319,69.6235 166.973519,98.6091 161.200319,105.6406 C159.504319,104.8833 157.746919,104.1643 155.918919,103.493 C156.438119,98.1009 160.226219,56.956 162.235619,35.0718 C166.601419,35.1716 170.629419,32.2806 171.769219,27.8732 C173.099519,22.7256 170.011819,17.4747 164.862519,16.143 C159.722519,14.8111 154.471919,17.9019 153.138319,23.0465 C151.995419,27.4554 154.112219,31.938 157.980519,33.9672 C148.502319,55.4798 130.111219,97.2288 130.065319,97.4018 C130.056119,97.4433 130.062219,97.4863 130.053019,97.5293 C128.381719,97.3311 126.664019,97.1545 124.913019,97.0101 C124.565819,94.6951 116.679119,46.2983 112.568419,21.0918 C117.293919,19.9858 120.811419,15.7567 120.811419,10.6933 C120.811419,4.7912 116.027819,-1.27897692e-13 110.122619,-1.27897692e-13 C104.217419,-1.27897692e-13 99.4309193,4.7915 99.4309193,10.6933 C99.4309193,15.7566 102.958019,19.9856 107.680319,21.0918 C103.587819,46.1853 95.7504193,94.2541 95.3389193,96.9692 C93.5108193,97.1167 91.7227193,97.2903 89.9776193,97.4961 C89.9653193,97.4347 89.9684193,97.3824 89.9500193,97.3271 C89.9070193,97.1535 71.5126193,55.3992 62.0407193,33.8893 C65.9026193,31.8615 68.0164193,27.3807 66.8766193,22.9686 C65.5462193,17.8241 60.2924193,14.7331 55.1495193,16.0651 C50.0066193,17.3972 46.9156193,22.6477 48.2489193,27.7906 C49.3918193,32.2039 53.4135193,35.092 57.7793193,34.9907 C59.7886193,56.8504 63.5646193,97.9094 64.0961193,103.3867 C62.3018193,104.0411 60.5753193,104.7401 58.9101193,105.4759 C52.9035193,98.1697 29.2526193,69.5035 16.2397193,53.7385 C19.4134193,50.7322 20.2308193,45.8503 17.9356193,41.9145 C15.2596193,37.3212 9.36371932,35.7727 4.77361932,38.4519 C0.186619318,41.1294 -1.36508068,47.0222 1.31101932,51.6154 C3.61221932,55.548 8.26991932,57.2393 12.4453193,55.9551 C20.2706193,76.3355 45.5296193,141.9283 46.4954193,142.8344 C63.9065193,135.7481 83.9276193,131.4374 109.870319,131.4374 C135.800919,131.4374 155.815819,135.7431 173.229419,142.8281 C174.188019,141.9202 199.780519,76.8672 207.808119,55.9551 C211.986419,57.2393 216.641019,55.548 218.939319,51.6154 C221.519119,47.0253 219.977419,41.1326 215.384219,38.4553 L215.475019,38.4498 Z"/>
    <polygon fill="#000" points="101.272 145.936 110.207 150.403 119.173 145.936 110.207 141.469"/>
    <polygon fill="#000" points="64.714 151.725 74.247 154.682 82.364 148.83 72.831 145.873"/>
    <polygon fill="#000" points="155.731 151.756 146.198 154.745 138.081 148.893 147.614 145.905"/>
  </g>
</svg>
